<?xml version="1.0" encoding="UTF-8"?>
<svg width="15px" height="16px" viewBox="0 0 15 16" version="1.1" xmlns="http://www.w3.org/2000/svg" xmlns:xlink="http://www.w3.org/1999/xlink">
    <defs></defs>
    <g id="Symbols" stroke="none" stroke-width="1" fill="none" fill-rule="evenodd">
        <g id="new-story" transform="translate(-11.000000, -11.000000)" fill="#FFFFFF">
            <path d="M25.7,14.3 L22.7,11.3 C22.5,11.1 22.3,11 22,11 L21,11 L13,11 C12.4,11 12,11.4 12,12 L12,15 L14,15 L14,13 L21,13 L21,14 L21,16 L24,16 L24,25 L23,25 L23,27 L25,27 C25.6,27 26,26.6 26,26 L26,16 L26,15 C26,14.7 25.9,14.5 25.7,14.3 Z M14,16 L11,19 L19,27 L22,27 L22,24 L14,16 Z" id="icon-document"></path>
        </g>
    </g>
</svg>