<?xml version="1.0" encoding="utf-8"?>
<!-- Generator: Adobe Illustrator 15.1.0, SVG Export Plug-In . SVG Version: 6.00 Build 0)  -->
<!DOCTYPE svg PUBLIC "-//W3C//DTD SVG 1.1//EN" "http://www.w3.org/Graphics/SVG/1.1/DTD/svg11.dtd">
<svg version="1.1" xmlns="http://www.w3.org/2000/svg" xmlns:xlink="http://www.w3.org/1999/xlink" x="0px" y="0px" width="191px"
	 height="47px" viewBox="0 0 191 47" enable-background="new 0 0 191 47" xml:space="preserve">
<g id="Layer_1" display="none">
	<rect display="inline" fill="#F8E64D" width="190.68" height="47.25"/>
	<rect display="inline" fill="none" stroke="#F9EC00" stroke-width="0.525" width="190.68" height="47.25"/>
	
		<text transform="matrix(1 0 0 1 18.8394 20.6836)" display="inline" fill="#816947" font-family="'OpenSans-Semibold'" font-size="13.65">Go to the help section</text>
	<text transform="matrix(1 0 0 1 18.8394 37.168)" display="inline" fill="#816947" font-family="'OpenSans'" font-size="11.55">of the OGP Explorer</text>
</g>
<g id="Layer_2">
	<rect fill="#F8E64D" width="190.68" height="47.25"/>
	<rect fill="none" stroke="#F9EC00" stroke-width="0.525" width="190.68" height="47.25"/>
	<g enable-background="new    ">
		<path fill="#816947" d="M24.111,15.398h3.586v4.892c-0.586,0.191-1.15,0.327-1.689,0.407c-0.54,0.08-1.123,0.119-1.75,0.119
			c-1.475,0-2.612-0.437-3.412-1.31s-1.2-2.104-1.2-3.695c0-1.568,0.451-2.796,1.353-3.683c0.902-0.887,2.144-1.329,3.726-1.329
			c1.018,0,1.981,0.195,2.893,0.586l-0.56,1.326c-0.791-0.364-1.582-0.546-2.373-0.546c-1.04,0-1.862,0.326-2.466,0.979
			c-0.604,0.653-0.907,1.546-0.907,2.68c0,1.19,0.272,2.096,0.816,2.716c0.544,0.619,1.328,0.93,2.35,0.93
			c0.515,0,1.066-0.064,1.653-0.193v-2.513h-2.02V15.398z"/>
		<path fill="#816947" d="M36.409,16.984c0,1.204-0.309,2.145-0.927,2.819c-0.617,0.676-1.477,1.013-2.579,1.013
			c-0.689,0-1.297-0.155-1.826-0.466c-0.529-0.312-0.936-0.758-1.22-1.34c-0.285-0.582-0.427-1.258-0.427-2.026
			c0-1.195,0.307-2.128,0.92-2.799s1.478-1.007,2.593-1.007c1.066,0,1.911,0.344,2.533,1.03
			C36.098,14.895,36.409,15.82,36.409,16.984z M31.043,16.984c0,1.702,0.628,2.553,1.886,2.553c1.244,0,1.866-0.851,1.866-2.553
			c0-1.684-0.627-2.526-1.88-2.526c-0.658,0-1.134,0.218-1.43,0.653S31.043,16.171,31.043,16.984z"/>
		<path fill="#816947" d="M44.5,19.551c0.382,0,0.764-0.061,1.146-0.181v1.181c-0.173,0.075-0.396,0.139-0.67,0.189
			s-0.557,0.076-0.85,0.076c-1.484,0-2.226-0.781-2.226-2.346v-3.973h-1.007v-0.692l1.08-0.573l0.533-1.56h0.966v1.64h2.1v1.186
			h-2.1v3.946c0,0.378,0.094,0.656,0.283,0.836C43.945,19.461,44.193,19.551,44.5,19.551z"/>
		<path fill="#816947" d="M53.658,16.984c0,1.204-0.309,2.145-0.927,2.819c-0.617,0.676-1.477,1.013-2.579,1.013
			c-0.689,0-1.297-0.155-1.826-0.466c-0.529-0.312-0.936-0.758-1.22-1.34c-0.285-0.582-0.427-1.258-0.427-2.026
			c0-1.195,0.307-2.128,0.92-2.799s1.478-1.007,2.593-1.007c1.066,0,1.911,0.344,2.533,1.03
			C53.347,14.895,53.658,15.82,53.658,16.984z M48.292,16.984c0,1.702,0.628,2.553,1.886,2.553c1.244,0,1.866-0.851,1.866-2.553
			c0-1.684-0.627-2.526-1.88-2.526c-0.658,0-1.134,0.218-1.43,0.653S48.292,16.171,48.292,16.984z"/>
		<path fill="#816947" d="M61.749,19.551c0.382,0,0.764-0.061,1.146-0.181v1.181c-0.173,0.075-0.396,0.139-0.67,0.189
			s-0.557,0.076-0.85,0.076c-1.484,0-2.226-0.781-2.226-2.346v-3.973h-1.007v-0.692l1.08-0.573l0.533-1.56h0.966v1.64h2.1v1.186
			h-2.1v3.946c0,0.378,0.094,0.656,0.283,0.836C61.195,19.461,61.442,19.551,61.749,19.551z"/>
		<path fill="#816947" d="M70.854,20.684H69.28v-4.532c0-0.568-0.114-0.993-0.343-1.273c-0.229-0.279-0.592-0.42-1.09-0.42
			c-0.657,0-1.141,0.197-1.449,0.59c-0.309,0.394-0.463,1.053-0.463,1.977v3.659h-1.566V10.312h1.566v2.633
			c0,0.422-0.027,0.873-0.08,1.354h0.1c0.213-0.355,0.51-0.631,0.89-0.827c0.38-0.195,0.823-0.293,1.33-0.293
			c1.787,0,2.68,0.899,2.68,2.699V20.684z"/>
		<path fill="#816947" d="M76.252,20.816c-1.146,0-2.043-0.334-2.689-1.003c-0.646-0.668-0.97-1.589-0.97-2.763
			c0-1.204,0.3-2.15,0.9-2.839c0.6-0.688,1.424-1.033,2.473-1.033c0.973,0,1.742,0.296,2.306,0.887s0.847,1.404,0.847,2.439v0.847
			h-4.912c0.022,0.715,0.215,1.265,0.58,1.649c0.364,0.384,0.877,0.576,1.54,0.576c0.436,0,0.841-0.041,1.216-0.123
			s0.779-0.219,1.21-0.41v1.273c-0.382,0.182-0.769,0.311-1.16,0.386C77.201,20.779,76.754,20.816,76.252,20.816z M75.965,14.365
			c-0.498,0-0.896,0.157-1.196,0.473c-0.3,0.316-0.479,0.776-0.537,1.38h3.346c-0.009-0.608-0.155-1.069-0.439-1.383
			C76.854,14.521,76.463,14.365,75.965,14.365z"/>
		<path fill="#816947" d="M90.929,20.684h-1.573v-4.532c0-0.568-0.114-0.993-0.343-1.273c-0.229-0.279-0.592-0.42-1.09-0.42
			c-0.657,0-1.141,0.197-1.449,0.59c-0.309,0.394-0.463,1.053-0.463,1.977v3.659h-1.566V10.312h1.566v2.633
			c0,0.422-0.027,0.873-0.08,1.354h0.1c0.213-0.355,0.51-0.631,0.89-0.827c0.38-0.195,0.823-0.293,1.33-0.293
			c1.787,0,2.68,0.899,2.68,2.699V20.684z"/>
		<path fill="#816947" d="M96.326,20.816c-1.146,0-2.042-0.334-2.689-1.003c-0.646-0.668-0.97-1.589-0.97-2.763
			c0-1.204,0.3-2.15,0.9-2.839c0.6-0.688,1.424-1.033,2.473-1.033c0.974,0,1.741,0.296,2.306,0.887s0.848,1.404,0.848,2.439v0.847
			h-4.913c0.022,0.715,0.215,1.265,0.58,1.649c0.364,0.384,0.877,0.576,1.54,0.576c0.436,0,0.84-0.041,1.216-0.123
			s0.778-0.219,1.21-0.41v1.273c-0.383,0.182-0.77,0.311-1.16,0.386C97.275,20.779,96.828,20.816,96.326,20.816z M96.04,14.365
			c-0.498,0-0.896,0.157-1.196,0.473c-0.3,0.316-0.479,0.776-0.537,1.38h3.345c-0.008-0.608-0.154-1.069-0.439-1.383
			C96.929,14.521,96.537,14.365,96.04,14.365z"/>
		<path fill="#816947" d="M102.539,20.684h-1.566V10.312h1.566V20.684z"/>
		<path fill="#816947" d="M108.518,20.816c-0.934,0-1.658-0.335-2.173-1.006h-0.093c0.062,0.622,0.093,1,0.093,1.133v3.02h-1.566
			v-10.65h1.267c0.035,0.138,0.109,0.466,0.22,0.986h0.08c0.489-0.747,1.222-1.12,2.199-1.12c0.92,0,1.637,0.333,2.149,1
			c0.514,0.666,0.77,1.602,0.77,2.806s-0.261,2.145-0.783,2.819C110.158,20.479,109.438,20.816,108.518,20.816z M108.138,14.458
			c-0.622,0-1.077,0.183-1.363,0.547s-0.43,0.946-0.43,1.746v0.233c0,0.897,0.142,1.548,0.427,1.949
			c0.284,0.402,0.748,0.604,1.393,0.604c0.543,0,0.96-0.222,1.254-0.666c0.293-0.444,0.439-1.078,0.439-1.9
			c0-0.826-0.146-1.451-0.438-1.876C109.129,14.671,108.701,14.458,108.138,14.458z"/>
		<path fill="#816947" d="M121.781,18.584c0,0.72-0.263,1.272-0.787,1.656c-0.523,0.385-1.275,0.576-2.252,0.576
			c-0.982,0-1.771-0.148-2.367-0.446v-1.353c0.867,0.399,1.674,0.6,2.42,0.6c0.965,0,1.446-0.291,1.446-0.873
			c0-0.187-0.054-0.342-0.16-0.467c-0.106-0.124-0.282-0.253-0.526-0.387c-0.244-0.133-0.584-0.284-1.02-0.453
			c-0.85-0.328-1.424-0.657-1.723-0.986c-0.301-0.329-0.45-0.755-0.45-1.279c0-0.631,0.255-1.121,0.763-1.47
			c0.51-0.349,1.201-0.523,2.076-0.523c0.867,0,1.687,0.176,2.459,0.526l-0.506,1.18c-0.795-0.328-1.464-0.493-2.006-0.493
			c-0.826,0-1.24,0.235-1.24,0.707c0,0.23,0.107,0.426,0.324,0.586c0.215,0.16,0.685,0.38,1.409,0.66
			c0.608,0.235,1.051,0.451,1.326,0.646s0.479,0.421,0.613,0.677C121.715,17.923,121.781,18.229,121.781,18.584z"/>
		<path fill="#816947" d="M126.693,20.816c-1.146,0-2.043-0.334-2.689-1.003c-0.646-0.668-0.971-1.589-0.971-2.763
			c0-1.204,0.301-2.15,0.9-2.839s1.424-1.033,2.473-1.033c0.973,0,1.742,0.296,2.307,0.887s0.846,1.404,0.846,2.439v0.847h-4.912
			c0.022,0.715,0.216,1.265,0.58,1.649c0.364,0.384,0.877,0.576,1.539,0.576c0.436,0,0.842-0.041,1.217-0.123s0.779-0.219,1.21-0.41
			v1.273c-0.382,0.182-0.769,0.311-1.159,0.386C127.642,20.779,127.195,20.816,126.693,20.816z M126.406,14.365
			c-0.498,0-0.896,0.157-1.196,0.473c-0.3,0.316-0.479,0.776-0.536,1.38h3.346c-0.01-0.608-0.156-1.069-0.439-1.383
			C127.295,14.521,126.904,14.365,126.406,14.365z"/>
		<path fill="#816947" d="M134.311,20.816c-1.115,0-1.963-0.325-2.542-0.976c-0.58-0.651-0.87-1.586-0.87-2.803
			c0-1.24,0.303-2.193,0.91-2.859c0.606-0.667,1.482-1,2.629-1c0.777,0,1.478,0.145,2.1,0.434l-0.473,1.26
			c-0.662-0.258-1.209-0.387-1.641-0.387c-1.275,0-1.912,0.847-1.912,2.539c0,0.826,0.158,1.447,0.477,1.863
			c0.317,0.415,0.783,0.623,1.396,0.623c0.697,0,1.357-0.174,1.979-0.521v1.367c-0.279,0.164-0.578,0.282-0.896,0.353
			C135.15,20.781,134.764,20.816,134.311,20.816z"/>
		<path fill="#816947" d="M140.843,19.551c0.382,0,0.765-0.061,1.146-0.181v1.181c-0.173,0.075-0.396,0.139-0.67,0.189
			s-0.557,0.076-0.85,0.076c-1.484,0-2.226-0.781-2.226-2.346v-3.973h-1.008v-0.692l1.08-0.573l0.533-1.56h0.967v1.64h2.1v1.186
			h-2.1v3.946c0,0.378,0.094,0.656,0.283,0.836C140.289,19.461,140.536,19.551,140.843,19.551z"/>
		<path fill="#816947" d="M143.369,11.359c0-0.28,0.076-0.495,0.229-0.646s0.372-0.227,0.657-0.227c0.275,0,0.489,0.075,0.643,0.227
			s0.23,0.366,0.23,0.646c0,0.267-0.077,0.477-0.23,0.63s-0.367,0.229-0.643,0.229c-0.285,0-0.504-0.076-0.657-0.229
			S143.369,11.626,143.369,11.359z M145.028,20.684h-1.566v-7.371h1.566V20.684z"/>
		<path fill="#816947" d="M153.807,16.984c0,1.204-0.31,2.145-0.928,2.819c-0.617,0.676-1.477,1.013-2.578,1.013
			c-0.689,0-1.298-0.155-1.826-0.466c-0.529-0.312-0.936-0.758-1.221-1.34c-0.284-0.582-0.426-1.258-0.426-2.026
			c0-1.195,0.307-2.128,0.92-2.799s1.477-1.007,2.592-1.007c1.066,0,1.911,0.344,2.533,1.03
			C153.495,14.895,153.807,15.82,153.807,16.984z M148.441,16.984c0,1.702,0.628,2.553,1.886,2.553c1.243,0,1.866-0.851,1.866-2.553
			c0-1.684-0.627-2.526-1.88-2.526c-0.657,0-1.134,0.218-1.43,0.653S148.441,16.171,148.441,16.984z"/>
		<path fill="#816947" d="M162.091,20.684h-1.573v-4.532c0-0.568-0.114-0.993-0.344-1.273c-0.229-0.279-0.592-0.42-1.09-0.42
			c-0.662,0-1.146,0.196-1.452,0.587s-0.46,1.047-0.46,1.966v3.673h-1.566v-7.371h1.227l0.22,0.966h0.08
			c0.222-0.351,0.538-0.622,0.946-0.812c0.408-0.191,0.862-0.287,1.359-0.287c1.77,0,2.653,0.899,2.653,2.699V20.684z"/>
	</g>
	<g enable-background="new    ">
		<path fill="#816947" d="M25.167,34.072c0,1.007-0.254,1.794-0.761,2.359c-0.508,0.566-1.209,0.85-2.104,0.85
			c-0.553,0-1.043-0.13-1.472-0.39s-0.759-0.632-0.993-1.116c-0.233-0.485-0.35-1.053-0.35-1.703c0-1.008,0.252-1.793,0.756-2.355
			c0.504-0.562,1.203-0.843,2.098-0.843c0.864,0,1.552,0.288,2.061,0.863S25.167,33.091,25.167,34.072z M20.458,34.072
			c0,0.789,0.158,1.391,0.474,1.805c0.316,0.413,0.78,0.62,1.393,0.62s1.078-0.206,1.396-0.618c0.317-0.411,0.476-1.014,0.476-1.807
			c0-0.786-0.159-1.383-0.476-1.791c-0.318-0.408-0.787-0.612-1.407-0.612c-0.613,0-1.075,0.201-1.387,0.604
			C20.614,32.675,20.458,33.274,20.458,34.072z"/>
		<path fill="#816947" d="M29.594,31.715h-1.573v5.453h-0.936v-5.453h-1.105v-0.424l1.105-0.338v-0.344
			c0-1.52,0.664-2.278,1.991-2.278c0.327,0,0.71,0.065,1.15,0.197l-0.243,0.75c-0.361-0.117-0.669-0.175-0.925-0.175
			c-0.354,0-0.615,0.117-0.784,0.353c-0.169,0.234-0.254,0.611-0.254,1.131v0.4h1.573V31.715z"/>
		<path fill="#816947" d="M35.719,36.508c0.165,0,0.325-0.012,0.479-0.036s0.276-0.05,0.367-0.076v0.716
			c-0.102,0.049-0.251,0.09-0.448,0.121c-0.197,0.032-0.375,0.049-0.533,0.049c-1.195,0-1.793-0.63-1.793-1.89v-3.677h-0.885v-0.451
			l0.885-0.39l0.395-1.319h0.542v1.433h1.793v0.728h-1.793v3.637c0,0.373,0.088,0.658,0.265,0.857
			C35.168,36.408,35.411,36.508,35.719,36.508z"/>
		<path fill="#816947" d="M42.029,37.168V33.17c0-0.504-0.115-0.88-0.344-1.128c-0.229-0.249-0.588-0.373-1.077-0.373
			c-0.651,0-1.125,0.177-1.424,0.53s-0.448,0.933-0.448,1.737v3.231H37.8v-8.775h0.936v2.656c0,0.319-0.015,0.585-0.045,0.795h0.056
			c0.184-0.297,0.446-0.53,0.787-0.702c0.34-0.171,0.729-0.256,1.165-0.256c0.755,0,1.322,0.18,1.7,0.538
			c0.378,0.359,0.567,0.93,0.567,1.712v4.032H42.029z"/>
		<path fill="#816947" d="M47.5,37.281c-0.914,0-1.634-0.278-2.163-0.835s-0.792-1.329-0.792-2.318c0-0.996,0.246-1.787,0.736-2.374
			c0.49-0.587,1.149-0.88,1.977-0.88c0.774,0,1.387,0.255,1.838,0.765c0.451,0.509,0.677,1.181,0.677,2.016v0.593h-4.258
			c0.019,0.726,0.202,1.276,0.55,1.652s0.837,0.563,1.469,0.563c0.666,0,1.323-0.139,1.974-0.417v0.834
			c-0.331,0.144-0.644,0.246-0.939,0.308C48.274,37.25,47.917,37.281,47.5,37.281z M47.247,31.658c-0.497,0-0.892,0.161-1.188,0.484
			c-0.295,0.324-0.469,0.771-0.521,1.343h3.231c0-0.59-0.131-1.042-0.395-1.356C48.111,31.815,47.735,31.658,47.247,31.658z"/>
		<path fill="#816947" d="M61.667,33.034c0,1.319-0.333,2.357-1.001,3.113c-0.667,0.756-1.595,1.134-2.783,1.134
			c-1.214,0-2.151-0.372-2.811-1.114c-0.66-0.742-0.99-1.791-0.99-3.145c0-1.342,0.331-2.383,0.993-3.121
			c0.662-0.739,1.602-1.108,2.82-1.108c1.184,0,2.109,0.376,2.774,1.128S61.667,31.711,61.667,33.034z M55.097,33.034
			c0,1.116,0.238,1.964,0.713,2.541s1.167,0.865,2.072,0.865c0.914,0,1.604-0.288,2.07-0.863s0.7-1.423,0.7-2.543
			c0-1.109-0.232-1.95-0.697-2.523s-1.151-0.86-2.061-0.86c-0.914,0-1.608,0.288-2.084,0.865S55.097,31.933,55.097,33.034z"/>
		<path fill="#816947" d="M67.131,32.848h2.803v4.01c-0.437,0.14-0.88,0.245-1.331,0.316s-0.974,0.107-1.568,0.107
			c-1.249,0-2.22-0.372-2.916-1.114c-0.695-0.742-1.043-1.783-1.043-3.122c0-0.856,0.172-1.607,0.516-2.253
			c0.344-0.645,0.839-1.137,1.486-1.478c0.646-0.34,1.404-0.51,2.273-0.51c0.879,0,1.699,0.161,2.458,0.484l-0.372,0.847
			c-0.744-0.316-1.46-0.475-2.148-0.475c-1.004,0-1.788,0.3-2.352,0.897s-0.846,1.427-0.846,2.486c0,1.113,0.271,1.957,0.815,2.532
			c0.543,0.575,1.341,0.863,2.394,0.863c0.571,0,1.129-0.065,1.675-0.197v-2.538h-1.844V32.848z"/>
		<path fill="#816947" d="M77.142,31.325c0,0.835-0.285,1.477-0.854,1.926c-0.57,0.449-1.385,0.674-2.445,0.674h-0.97v3.243h-0.958
			v-8.245h2.137C76.112,28.923,77.142,29.724,77.142,31.325z M72.873,33.102h0.863c0.85,0,1.464-0.137,1.844-0.411
			s0.57-0.715,0.57-1.32c0-0.545-0.179-0.951-0.536-1.218c-0.357-0.267-0.914-0.4-1.669-0.4h-1.072V33.102z"/>
		<path fill="#816947" d="M86.464,37.168h-4.596v-8.245h4.596v0.852h-3.638v2.656h3.417v0.846h-3.417v3.034h3.638V37.168z"/>
		<path fill="#816947" d="M89.64,34.004l-2.149-3.017h1.066l1.63,2.368l1.625-2.368h1.055l-2.149,3.017l2.262,3.164h-1.061
			l-1.731-2.504l-1.748,2.504h-1.061L89.64,34.004z"/>
		<path fill="#816947" d="M97.078,37.281c-0.402,0-0.77-0.075-1.103-0.224c-0.333-0.148-0.612-0.377-0.837-0.685h-0.067
			c0.045,0.36,0.067,0.703,0.067,1.026v2.543h-0.936v-8.955h0.761l0.13,0.846h0.045c0.241-0.339,0.521-0.583,0.84-0.733
			c0.319-0.15,0.686-0.226,1.1-0.226c0.82,0,1.452,0.28,1.898,0.841c0.445,0.56,0.668,1.346,0.668,2.357
			c0,1.015-0.227,1.804-0.68,2.365C98.512,37,97.883,37.281,97.078,37.281z M96.943,31.669c-0.633,0-1.089,0.175-1.371,0.524
			c-0.282,0.35-0.427,0.906-0.434,1.67v0.209c0,0.868,0.145,1.489,0.434,1.863s0.754,0.562,1.393,0.562
			c0.535,0,0.953-0.217,1.256-0.648c0.303-0.433,0.453-1.028,0.453-1.788c0-0.771-0.15-1.362-0.453-1.773
			C97.918,31.875,97.492,31.669,96.943,31.669z"/>
		<path fill="#816947" d="M102.216,37.168h-0.937v-8.775h0.937V37.168z"/>
		<path fill="#816947" d="M109.536,34.072c0,1.007-0.254,1.794-0.761,2.359c-0.508,0.566-1.209,0.85-2.104,0.85
			c-0.553,0-1.044-0.13-1.473-0.39s-0.76-0.632-0.992-1.116c-0.233-0.485-0.35-1.053-0.35-1.703c0-1.008,0.252-1.793,0.756-2.355
			c0.504-0.562,1.203-0.843,2.098-0.843c0.864,0,1.552,0.288,2.061,0.863C109.281,32.312,109.536,33.091,109.536,34.072z
			 M104.827,34.072c0,0.789,0.157,1.391,0.474,1.805c0.316,0.413,0.78,0.62,1.393,0.62c0.613,0,1.078-0.206,1.396-0.618
			c0.317-0.411,0.477-1.014,0.477-1.807c0-0.786-0.159-1.383-0.477-1.791c-0.318-0.408-0.787-0.612-1.407-0.612
			c-0.612,0-1.075,0.201-1.388,0.604S104.827,33.274,104.827,34.072z"/>
		<path fill="#816947" d="M113.997,30.874c0.274,0,0.521,0.022,0.739,0.067l-0.131,0.869c-0.256-0.057-0.48-0.085-0.676-0.085
			c-0.5,0-0.928,0.203-1.283,0.609s-0.533,0.911-0.533,1.517v3.316h-0.936v-6.181h0.771l0.107,1.145h0.045
			c0.23-0.402,0.506-0.713,0.83-0.931C113.254,30.983,113.609,30.874,113.997,30.874z"/>
		<path fill="#816947" d="M118.503,37.281c-0.913,0-1.634-0.278-2.163-0.835c-0.527-0.557-0.792-1.329-0.792-2.318
			c0-0.996,0.245-1.787,0.736-2.374c0.49-0.587,1.149-0.88,1.977-0.88c0.774,0,1.388,0.255,1.839,0.765
			c0.451,0.509,0.676,1.181,0.676,2.016v0.593h-4.258c0.02,0.726,0.203,1.276,0.551,1.652s0.837,0.563,1.469,0.563
			c0.666,0,1.323-0.139,1.974-0.417v0.834c-0.331,0.144-0.644,0.246-0.938,0.308C119.277,37.25,118.92,37.281,118.503,37.281z
			 M118.25,31.658c-0.497,0-0.893,0.161-1.188,0.484c-0.295,0.324-0.469,0.771-0.521,1.343h3.23c0-0.59-0.131-1.042-0.395-1.356
			C119.114,31.815,118.738,31.658,118.25,31.658z"/>
		<path fill="#816947" d="M125.191,30.874c0.275,0,0.521,0.022,0.739,0.067l-0.13,0.869c-0.256-0.057-0.481-0.085-0.677-0.085
			c-0.5,0-0.928,0.203-1.282,0.609c-0.355,0.406-0.533,0.911-0.533,1.517v3.316h-0.937v-6.181h0.772l0.107,1.145h0.045
			c0.229-0.402,0.506-0.713,0.829-0.931S124.805,30.874,125.191,30.874z"/>
	</g>
</g>
</svg>
