<?xml version="1.0" encoding="utf-8"?>
<!-- Generator: Adobe Illustrator 15.1.0, SVG Export Plug-In . SVG Version: 6.00 Build 0)  -->
<!DOCTYPE svg PUBLIC "-//W3C//DTD SVG 1.1//EN" "http://www.w3.org/Graphics/SVG/1.1/DTD/svg11.dtd">
<svg version="1.1" xmlns="http://www.w3.org/2000/svg" xmlns:xlink="http://www.w3.org/1999/xlink" x="0px" y="0px" width="191px"
	 height="47px" viewBox="0 0 191 47" enable-background="new 0 0 191 47" xml:space="preserve">
<g id="Layer_1" display="none">
</g>
<g id="Layer_2">
	<rect fill="#F8E64D" width="190.68" height="47.25"/>
	<rect fill="none" stroke="#F9EC00" stroke-width="0.525" width="190.68" height="47.25"/>
	<g enable-background="new    ">
		<path fill="#816947" d="M25.745,17.54c0,0.867-0.313,1.547-0.939,2.04s-1.491,0.739-2.593,0.739s-2.004-0.171-2.706-0.513v-1.506
			c0.444,0.208,0.917,0.373,1.417,0.493c0.5,0.119,0.965,0.18,1.396,0.18c0.631,0,1.097-0.12,1.396-0.36
			c0.3-0.239,0.45-0.562,0.45-0.966c0-0.364-0.138-0.674-0.413-0.927s-0.844-0.553-1.706-0.899c-0.889-0.36-1.516-0.771-1.88-1.233
			s-0.546-1.018-0.546-1.666c0-0.813,0.289-1.453,0.867-1.92c0.577-0.467,1.353-0.699,2.326-0.699c0.933,0,1.862,0.204,2.786,0.612
			l-0.506,1.3c-0.867-0.364-1.64-0.546-2.319-0.546c-0.516,0-0.907,0.112-1.173,0.336c-0.267,0.225-0.4,0.521-0.4,0.89
			c0,0.254,0.053,0.471,0.16,0.65c0.106,0.18,0.282,0.35,0.526,0.51c0.244,0.16,0.684,0.371,1.32,0.633
			c0.715,0.298,1.24,0.576,1.573,0.833c0.333,0.258,0.578,0.549,0.733,0.874C25.667,16.719,25.745,17.101,25.745,17.54z"/>
		<path fill="#816947" d="M30.684,20.319c-1.146,0-2.043-0.334-2.689-1.003c-0.646-0.668-0.97-1.589-0.97-2.763
			c0-1.204,0.3-2.15,0.9-2.839c0.6-0.688,1.424-1.033,2.473-1.033c0.973,0,1.742,0.296,2.306,0.887s0.847,1.404,0.847,2.439v0.847
			h-4.912c0.022,0.715,0.215,1.265,0.58,1.649c0.364,0.384,0.877,0.576,1.54,0.576c0.436,0,0.841-0.041,1.216-0.123
			s0.779-0.219,1.21-0.41v1.273c-0.382,0.182-0.769,0.311-1.16,0.386C31.632,20.282,31.186,20.319,30.684,20.319z M30.397,13.868
			c-0.498,0-0.896,0.157-1.196,0.473c-0.3,0.316-0.479,0.776-0.537,1.38h3.346c-0.009-0.608-0.155-1.069-0.439-1.383
			C31.286,14.024,30.895,13.868,30.397,13.868z"/>
		<path fill="#816947" d="M38.548,20.319c-1.146,0-2.043-0.334-2.689-1.003c-0.646-0.668-0.97-1.589-0.97-2.763
			c0-1.204,0.3-2.15,0.9-2.839c0.6-0.688,1.424-1.033,2.473-1.033c0.973,0,1.742,0.296,2.306,0.887s0.847,1.404,0.847,2.439v0.847
			h-4.912c0.022,0.715,0.215,1.265,0.58,1.649c0.364,0.384,0.877,0.576,1.54,0.576c0.436,0,0.841-0.041,1.216-0.123
			s0.779-0.219,1.21-0.41v1.273c-0.382,0.182-0.769,0.311-1.16,0.386C39.497,20.282,39.05,20.319,38.548,20.319z M38.262,13.868
			c-0.498,0-0.896,0.157-1.196,0.473c-0.3,0.316-0.479,0.776-0.537,1.38h3.346c-0.009-0.608-0.155-1.069-0.439-1.383
			C39.15,14.024,38.759,13.868,38.262,13.868z"/>
		<path fill="#816947" d="M53.278,16.487c0,1.204-0.309,2.145-0.927,2.819c-0.617,0.676-1.477,1.013-2.579,1.013
			c-0.689,0-1.297-0.155-1.826-0.466c-0.529-0.312-0.936-0.758-1.22-1.34c-0.285-0.582-0.427-1.258-0.427-2.026
			c0-1.195,0.307-2.128,0.92-2.799s1.478-1.007,2.593-1.007c1.066,0,1.911,0.344,2.533,1.03
			C52.967,14.397,53.278,15.323,53.278,16.487z M47.913,16.487c0,1.702,0.628,2.553,1.886,2.553c1.244,0,1.866-0.851,1.866-2.553
			c0-1.684-0.627-2.526-1.88-2.526c-0.658,0-1.134,0.218-1.43,0.653S47.913,15.674,47.913,16.487z"/>
		<path fill="#816947" d="M61.563,20.187H59.99v-4.532c0-0.568-0.114-0.993-0.343-1.273c-0.229-0.279-0.592-0.42-1.09-0.42
			c-0.662,0-1.146,0.196-1.453,0.587s-0.46,1.047-0.46,1.966v3.673h-1.566v-7.371h1.227l0.22,0.966h0.08
			c0.222-0.351,0.538-0.622,0.946-0.812c0.409-0.191,0.862-0.287,1.36-0.287c1.769,0,2.653,0.899,2.653,2.699V20.187z"/>
		<path fill="#816947" d="M65.309,20.187h-1.566V9.815h1.566V20.187z"/>
		<path fill="#816947" d="M66.428,12.815h1.706l1.5,4.179c0.227,0.596,0.377,1.155,0.453,1.68h0.053
			c0.04-0.244,0.113-0.541,0.22-0.89c0.106-0.35,0.67-2.006,1.693-4.969h1.693l-3.153,8.351c-0.573,1.533-1.528,2.3-2.866,2.3
			c-0.347,0-0.685-0.038-1.013-0.113v-1.24c0.235,0.054,0.504,0.08,0.807,0.08c0.755,0,1.286-0.438,1.593-1.312l0.273-0.693
			L66.428,12.815z"/>
		<path fill="#816947" d="M81.384,20.319c-1.115,0-1.963-0.325-2.542-0.976c-0.58-0.651-0.87-1.586-0.87-2.803
			c0-1.24,0.303-2.193,0.91-2.859c0.606-0.667,1.483-1,2.629-1c0.778,0,1.478,0.145,2.1,0.434l-0.473,1.26
			c-0.662-0.258-1.208-0.387-1.64-0.387c-1.275,0-1.913,0.847-1.913,2.539c0,0.826,0.159,1.447,0.477,1.863
			c0.317,0.415,0.783,0.623,1.396,0.623c0.698,0,1.357-0.174,1.979-0.521v1.367c-0.28,0.164-0.579,0.282-0.896,0.353
			C82.223,20.284,81.837,20.319,81.384,20.319z"/>
		<path fill="#816947" d="M91.708,16.487c0,1.204-0.309,2.145-0.927,2.819c-0.617,0.676-1.477,1.013-2.579,1.013
			c-0.689,0-1.297-0.155-1.826-0.466c-0.529-0.312-0.936-0.758-1.22-1.34c-0.285-0.582-0.427-1.258-0.427-2.026
			c0-1.195,0.307-2.128,0.92-2.799s1.478-1.007,2.593-1.007c1.066,0,1.911,0.344,2.533,1.03
			C91.397,14.397,91.708,15.323,91.708,16.487z M86.343,16.487c0,1.702,0.628,2.553,1.886,2.553c1.244,0,1.866-0.851,1.866-2.553
			c0-1.684-0.627-2.526-1.88-2.526c-0.658,0-1.134,0.218-1.43,0.653S86.343,15.674,86.343,16.487z"/>
		<path fill="#816947" d="M99.721,20.187h-1.573v-4.546c0-0.563-0.106-0.985-0.32-1.263c-0.213-0.277-0.546-0.417-0.999-0.417
			c-0.605,0-1.048,0.197-1.33,0.59c-0.282,0.394-0.423,1.048-0.423,1.963v3.673h-1.566v-7.371h1.227l0.22,0.966h0.08
			c0.205-0.351,0.501-0.622,0.89-0.812c0.389-0.191,0.816-0.287,1.283-0.287c1.133,0,1.885,0.387,2.254,1.16h0.105
			c0.219-0.364,0.525-0.649,0.92-0.854c0.396-0.204,0.85-0.307,1.359-0.307c0.881,0,1.521,0.223,1.924,0.667
			s0.604,1.121,0.604,2.032v4.806h-1.566v-4.546c0-0.563-0.108-0.985-0.324-1.263c-0.215-0.277-0.549-0.417-1.002-0.417
			c-0.609,0-1.055,0.19-1.337,0.57s-0.423,0.963-0.423,1.75V20.187z"/>
		<path fill="#816947" d="M112.77,20.187h-1.572v-4.546c0-0.563-0.107-0.985-0.32-1.263s-0.547-0.417-1-0.417
			c-0.604,0-1.047,0.197-1.329,0.59c-0.282,0.394-0.423,1.048-0.423,1.963v3.673h-1.566v-7.371h1.227l0.219,0.966h0.08
			c0.205-0.351,0.502-0.622,0.891-0.812c0.389-0.191,0.816-0.287,1.283-0.287c1.133,0,1.883,0.387,2.252,1.16h0.107
			c0.217-0.364,0.523-0.649,0.92-0.854c0.395-0.204,0.848-0.307,1.359-0.307c0.879,0,1.521,0.223,1.922,0.667
			c0.402,0.444,0.604,1.121,0.604,2.032v4.806h-1.566v-4.546c0-0.563-0.107-0.985-0.322-1.263c-0.217-0.277-0.551-0.417-1.004-0.417
			c-0.608,0-1.054,0.19-1.336,0.57s-0.424,0.963-0.424,1.75V20.187z"/>
		<path fill="#816947" d="M119.516,10.862c0-0.28,0.076-0.495,0.229-0.646s0.372-0.227,0.657-0.227c0.275,0,0.489,0.075,0.643,0.227
			s0.23,0.366,0.23,0.646c0,0.267-0.077,0.477-0.23,0.63s-0.367,0.229-0.643,0.229c-0.285,0-0.504-0.076-0.657-0.229
			S119.516,11.129,119.516,10.862z M121.175,20.187h-1.566v-7.371h1.566V20.187z"/>
		<path fill="#816947" d="M126.16,19.054c0.383,0,0.764-0.061,1.146-0.181v1.181c-0.174,0.075-0.396,0.139-0.67,0.189
			s-0.557,0.076-0.85,0.076c-1.484,0-2.227-0.781-2.227-2.346v-3.973h-1.006v-0.692l1.08-0.573l0.533-1.56h0.966v1.64h2.1v1.186
			h-2.1v3.946c0,0.378,0.095,0.656,0.283,0.836C125.605,18.964,125.854,19.054,126.16,19.054z"/>
		<path fill="#816947" d="M134.991,20.187h-1.573v-4.546c0-0.563-0.106-0.985-0.32-1.263c-0.213-0.277-0.546-0.417-0.999-0.417
			c-0.604,0-1.048,0.197-1.329,0.59c-0.283,0.394-0.424,1.048-0.424,1.963v3.673h-1.566v-7.371h1.227l0.22,0.966h0.08
			c0.204-0.351,0.501-0.622,0.89-0.812c0.389-0.191,0.816-0.287,1.283-0.287c1.133,0,1.884,0.387,2.253,1.16h0.106
			c0.218-0.364,0.524-0.649,0.92-0.854s0.849-0.307,1.359-0.307c0.88,0,1.521,0.223,1.923,0.667
			c0.402,0.444,0.604,1.121,0.604,2.032v4.806h-1.566v-4.546c0-0.563-0.108-0.985-0.323-1.263c-0.216-0.277-0.55-0.417-1.003-0.417
			c-0.608,0-1.054,0.19-1.337,0.57c-0.281,0.38-0.423,0.963-0.423,1.75V20.187z"/>
		<path fill="#816947" d="M145.049,20.319c-1.146,0-2.043-0.334-2.689-1.003c-0.646-0.668-0.97-1.589-0.97-2.763
			c0-1.204,0.3-2.15,0.899-2.839c0.601-0.688,1.424-1.033,2.473-1.033c0.974,0,1.742,0.296,2.307,0.887s0.847,1.404,0.847,2.439
			v0.847h-4.912c0.022,0.715,0.216,1.265,0.579,1.649c0.365,0.384,0.878,0.576,1.54,0.576c0.436,0,0.841-0.041,1.216-0.123
			c0.376-0.082,0.779-0.219,1.211-0.41v1.273c-0.383,0.182-0.77,0.311-1.16,0.386C145.998,20.282,145.551,20.319,145.049,20.319z
			 M144.762,13.868c-0.497,0-0.896,0.157-1.195,0.473c-0.301,0.316-0.479,0.776-0.537,1.38h3.346
			c-0.009-0.608-0.155-1.069-0.439-1.383C145.65,14.024,145.26,13.868,144.762,13.868z"/>
		<path fill="#816947" d="M156.18,20.187h-1.573v-4.532c0-0.568-0.114-0.993-0.343-1.273c-0.229-0.279-0.592-0.42-1.09-0.42
			c-0.662,0-1.146,0.196-1.453,0.587s-0.46,1.047-0.46,1.966v3.673h-1.566v-7.371h1.227l0.22,0.966h0.08
			c0.223-0.351,0.537-0.622,0.946-0.812c0.409-0.191,0.862-0.287,1.36-0.287c1.768,0,2.652,0.899,2.652,2.699V20.187z"/>
		<path fill="#816947" d="M161.105,19.054c0.382,0,0.764-0.061,1.146-0.181v1.181c-0.174,0.075-0.396,0.139-0.67,0.189
			s-0.557,0.076-0.85,0.076c-1.484,0-2.227-0.781-2.227-2.346v-3.973h-1.007v-0.692l1.08-0.573l0.533-1.56h0.966v1.64h2.1v1.186
			h-2.1v3.946c0,0.378,0.095,0.656,0.283,0.836C160.551,18.964,160.799,19.054,161.105,19.054z"/>
		<path fill="#816947" d="M168.676,18.087c0,0.72-0.262,1.272-0.786,1.656c-0.524,0.385-1.274,0.576-2.253,0.576
			c-0.981,0-1.771-0.148-2.365-0.446v-1.353c0.866,0.399,1.672,0.6,2.419,0.6c0.964,0,1.446-0.291,1.446-0.873
			c0-0.187-0.053-0.342-0.16-0.467c-0.106-0.124-0.282-0.253-0.526-0.387c-0.245-0.133-0.585-0.284-1.02-0.453
			c-0.849-0.328-1.423-0.657-1.724-0.986c-0.299-0.329-0.449-0.755-0.449-1.279c0-0.631,0.254-1.121,0.764-1.47
			c0.508-0.349,1.2-0.523,2.076-0.523c0.865,0,1.686,0.176,2.459,0.526l-0.507,1.18c-0.796-0.328-1.464-0.493-2.007-0.493
			c-0.826,0-1.239,0.235-1.239,0.707c0,0.23,0.108,0.426,0.323,0.586c0.216,0.16,0.686,0.38,1.41,0.66
			c0.608,0.235,1.051,0.451,1.326,0.646s0.48,0.421,0.613,0.677C168.609,17.426,168.676,17.731,168.676,18.087z"/>
	</g>
	<g enable-background="new    ">
		<path fill="#816947" d="M23.699,29.062c0.315,0,0.575,0.022,0.78,0.066l-0.153,1.46c-0.222-0.054-0.453-0.08-0.693-0.08
			c-0.626,0-1.134,0.204-1.523,0.613c-0.389,0.409-0.583,0.939-0.583,1.593v3.853h-1.566v-7.371h1.227l0.207,1.299h0.08
			c0.244-0.439,0.563-0.788,0.957-1.046C22.822,29.19,23.246,29.062,23.699,29.062z"/>
		<path fill="#816947" d="M29.064,36.699c-1.146,0-2.043-0.334-2.689-1.003c-0.646-0.668-0.97-1.589-0.97-2.763
			c0-1.204,0.3-2.15,0.9-2.839c0.6-0.688,1.424-1.033,2.473-1.033c0.973,0,1.742,0.296,2.306,0.887s0.847,1.404,0.847,2.439v0.847
			h-4.912c0.022,0.715,0.215,1.265,0.58,1.649c0.364,0.384,0.877,0.576,1.54,0.576c0.436,0,0.841-0.041,1.216-0.123
			s0.779-0.219,1.21-0.41V36.2c-0.382,0.182-0.769,0.311-1.16,0.386C30.013,36.662,29.566,36.699,29.064,36.699z M28.777,30.248
			c-0.498,0-0.896,0.157-1.196,0.473c-0.3,0.316-0.479,0.776-0.537,1.38h3.346c-0.009-0.608-0.155-1.069-0.439-1.383
			C29.666,30.404,29.275,30.248,28.777,30.248z"/>
		<path fill="#816947" d="M35.389,36.566l-2.799-7.371h1.653l1.5,4.285c0.258,0.72,0.414,1.302,0.467,1.746h0.053
			c0.04-0.319,0.195-0.901,0.467-1.746l1.5-4.285h1.666l-2.812,7.371H35.389z"/>
		<path fill="#816947" d="M40.921,27.242c0-0.28,0.077-0.495,0.23-0.646s0.372-0.227,0.657-0.227c0.275,0,0.49,0.075,0.643,0.227
			s0.23,0.366,0.23,0.646c0,0.267-0.077,0.477-0.23,0.63s-0.368,0.229-0.643,0.229c-0.285,0-0.503-0.076-0.657-0.229
			S40.921,27.509,40.921,27.242z M42.581,36.566h-1.566v-7.371h1.566V36.566z"/>
		<path fill="#816947" d="M48.039,36.699c-1.146,0-2.043-0.334-2.689-1.003c-0.646-0.668-0.97-1.589-0.97-2.763
			c0-1.204,0.3-2.15,0.9-2.839c0.6-0.688,1.424-1.033,2.473-1.033c0.973,0,1.742,0.296,2.306,0.887s0.847,1.404,0.847,2.439v0.847
			h-4.912c0.022,0.715,0.215,1.265,0.58,1.649c0.364,0.384,0.877,0.576,1.54,0.576c0.436,0,0.841-0.041,1.216-0.123
			s0.779-0.219,1.21-0.41V36.2c-0.382,0.182-0.769,0.311-1.16,0.386C48.988,36.662,48.541,36.699,48.039,36.699z M47.752,30.248
			c-0.498,0-0.896,0.157-1.196,0.473c-0.3,0.316-0.479,0.776-0.537,1.38h3.346c-0.009-0.608-0.155-1.069-0.439-1.383
			C48.641,30.404,48.25,30.248,47.752,30.248z"/>
		<path fill="#816947" d="M58.73,36.566l-0.953-3.439c-0.116-0.364-0.325-1.211-0.626-2.539h-0.06
			c-0.258,1.199-0.462,2.051-0.613,2.553l-0.979,3.426h-1.733l-2.066-7.371h1.6l0.94,3.632c0.213,0.897,0.364,1.666,0.453,2.307
			h0.04c0.044-0.324,0.112-0.697,0.203-1.117c0.091-0.42,0.17-0.733,0.237-0.942l1.12-3.879h1.72l1.086,3.879
			c0.067,0.218,0.15,0.551,0.25,0.999c0.1,0.449,0.159,0.798,0.177,1.047h0.053c0.067-0.547,0.222-1.311,0.467-2.293l0.953-3.632
			h1.573l-2.08,7.371H58.73z"/>
		<path fill="#816947" d="M67.055,36.699c-1.146,0-2.043-0.334-2.689-1.003c-0.646-0.668-0.97-1.589-0.97-2.763
			c0-1.204,0.3-2.15,0.9-2.839c0.6-0.688,1.424-1.033,2.473-1.033c0.973,0,1.742,0.296,2.306,0.887s0.847,1.404,0.847,2.439v0.847
			h-4.912c0.022,0.715,0.215,1.265,0.58,1.649c0.364,0.384,0.877,0.576,1.54,0.576c0.436,0,0.841-0.041,1.216-0.123
			s0.779-0.219,1.21-0.41V36.2c-0.382,0.182-0.769,0.311-1.16,0.386C68.003,36.662,67.557,36.699,67.055,36.699z M66.768,30.248
			c-0.498,0-0.896,0.157-1.196,0.473c-0.3,0.316-0.479,0.776-0.537,1.38h3.346c-0.009-0.608-0.155-1.069-0.439-1.383
			C67.657,30.404,67.266,30.248,66.768,30.248z"/>
		<path fill="#816947" d="M74.187,36.699c-0.92,0-1.638-0.333-2.153-0.999c-0.516-0.667-0.773-1.602-0.773-2.807
			c0-1.208,0.261-2.149,0.783-2.822s1.245-1.01,2.169-1.01c0.969,0,1.707,0.357,2.213,1.073h0.08
			c-0.076-0.529-0.113-0.946-0.113-1.253v-2.687h1.573v10.371h-1.226L76.466,35.6h-0.073C75.89,36.333,75.155,36.699,74.187,36.699z
			 M74.606,35.434c0.644,0,1.113-0.182,1.406-0.543c0.293-0.362,0.444-0.95,0.453-1.764v-0.22c0-0.929-0.151-1.589-0.453-1.979
			c-0.302-0.391-0.775-0.587-1.42-0.587c-0.551,0-0.975,0.224-1.273,0.67c-0.298,0.447-0.446,1.083-0.446,1.91
			c0,0.817,0.144,1.44,0.433,1.869C73.595,35.219,74.029,35.434,74.606,35.434z"/>
		<path fill="#816947" d="M87.516,29.062c0.92,0,1.637,0.333,2.15,1c0.513,0.666,0.77,1.602,0.77,2.806
			c0,1.209-0.26,2.149-0.78,2.823c-0.52,0.673-1.242,1.009-2.166,1.009c-0.933,0-1.658-0.335-2.173-1.006H85.21l-0.287,0.873H83.75
			V26.195h1.566v2.467c0,0.182-0.009,0.453-0.027,0.812c-0.018,0.36-0.031,0.589-0.04,0.687h0.067
			C85.814,29.428,86.548,29.062,87.516,29.062z M87.11,30.341c-0.631,0-1.085,0.186-1.363,0.557
			c-0.277,0.371-0.421,0.992-0.43,1.863v0.106c0,0.897,0.142,1.548,0.427,1.949c0.284,0.402,0.749,0.604,1.393,0.604
			c0.556,0,0.977-0.22,1.263-0.66c0.287-0.439,0.43-1.075,0.43-1.906C88.829,31.179,88.256,30.341,87.11,30.341z"/>
		<path fill="#816947" d="M91.135,29.195h1.706l1.5,4.179c0.227,0.596,0.377,1.155,0.453,1.68h0.053
			c0.04-0.244,0.113-0.541,0.22-0.89c0.106-0.35,0.67-2.006,1.693-4.969h1.692l-3.152,8.351c-0.573,1.533-1.528,2.3-2.866,2.3
			c-0.347,0-0.685-0.038-1.013-0.113v-1.24c0.235,0.054,0.504,0.08,0.807,0.08c0.755,0,1.286-0.438,1.593-1.312l0.273-0.693
			L91.135,29.195z"/>
		<path fill="#816947" d="M103.285,36.566v-9.744h1.594v9.744H103.285z"/>
		<path fill="#816947" d="M109.045,32.674v3.893h-1.594v-9.744h2.753c1.257,0,2.188,0.235,2.792,0.706
			c0.605,0.472,0.907,1.183,0.907,2.133c0,1.213-0.632,2.077-1.894,2.593l2.753,4.312h-1.812l-2.333-3.893H109.045z M109.045,31.354
			h1.105c0.742,0,1.28-0.138,1.613-0.413s0.5-0.685,0.5-1.227c0-0.551-0.18-0.946-0.54-1.187s-0.901-0.36-1.626-0.36h-1.053V31.354z
			"/>
		<path fill="#816947" d="M120.389,36.566l-2.826-8.138h-0.054c0.075,1.208,0.113,2.342,0.113,3.398v4.739h-1.446v-9.744h2.246
			l2.706,7.751h0.04l2.786-7.751h2.253v9.744h-1.533v-4.818c0-0.484,0.012-1.115,0.037-1.894c0.023-0.777,0.045-1.248,0.062-1.413
			h-0.053l-2.926,8.125H120.389z"/>
		<path fill="#816947" d="M128.373,35.733c0-0.324,0.084-0.573,0.253-0.747c0.169-0.173,0.413-0.26,0.733-0.26
			c0.324,0,0.57,0.09,0.74,0.271c0.168,0.18,0.253,0.425,0.253,0.736c0,0.315-0.086,0.565-0.257,0.75
			c-0.171,0.184-0.416,0.276-0.736,0.276s-0.564-0.091-0.733-0.273C128.457,36.305,128.373,36.053,128.373,35.733z"/>
	</g>
</g>
</svg>
