<?xml version="1.0" encoding="utf-8"?>
<!-- Generator: Adobe Illustrator 15.1.0, SVG Export Plug-In . SVG Version: 6.00 Build 0)  -->
<!DOCTYPE svg PUBLIC "-//W3C//DTD SVG 1.1//EN" "http://www.w3.org/Graphics/SVG/1.1/DTD/svg11.dtd">
<svg version="1.1" xmlns="http://www.w3.org/2000/svg" xmlns:xlink="http://www.w3.org/1999/xlink" x="0px" y="0px" width="191px"
	 height="47px" viewBox="0 0 191 47" enable-background="new 0 0 191 47" xml:space="preserve">
<g id="Layer_1">
</g>
<g id="Layer_2">
	<rect fill="#F8E64D" width="190.68" height="47.25"/>
	<rect fill="none" stroke="#F9EC00" stroke-width="0.525" width="190.68" height="47.25"/>
	<g enable-background="new    ">
		<path fill="#816947" d="M25.745,18.188c0,0.867-0.313,1.547-0.939,2.04s-1.491,0.739-2.593,0.739s-2.004-0.171-2.706-0.513v-1.506
			c0.444,0.208,0.917,0.373,1.417,0.493c0.5,0.119,0.965,0.18,1.396,0.18c0.631,0,1.097-0.12,1.396-0.36
			c0.3-0.239,0.45-0.562,0.45-0.966c0-0.364-0.138-0.674-0.413-0.927s-0.844-0.553-1.706-0.899c-0.889-0.36-1.516-0.771-1.88-1.233
			s-0.546-1.018-0.546-1.666c0-0.813,0.289-1.453,0.867-1.92c0.577-0.467,1.353-0.699,2.326-0.699c0.933,0,1.862,0.204,2.786,0.612
			l-0.506,1.3c-0.867-0.364-1.64-0.546-2.319-0.546c-0.516,0-0.907,0.112-1.173,0.336c-0.267,0.225-0.4,0.521-0.4,0.89
			c0,0.254,0.053,0.471,0.16,0.65c0.106,0.18,0.282,0.35,0.526,0.51c0.244,0.16,0.684,0.371,1.32,0.633
			c0.715,0.298,1.24,0.576,1.573,0.833c0.333,0.258,0.578,0.549,0.733,0.874C25.667,17.367,25.745,17.749,25.745,18.188z"/>
		<path fill="#816947" d="M30.684,20.968c-1.146,0-2.043-0.334-2.689-1.003c-0.646-0.668-0.97-1.589-0.97-2.763
			c0-1.204,0.3-2.15,0.9-2.839c0.6-0.688,1.424-1.033,2.473-1.033c0.973,0,1.742,0.296,2.306,0.887s0.847,1.404,0.847,2.439v0.847
			h-4.912c0.022,0.715,0.215,1.265,0.58,1.649c0.364,0.384,0.877,0.576,1.54,0.576c0.436,0,0.841-0.041,1.216-0.123
			s0.779-0.219,1.21-0.41v1.273c-0.382,0.182-0.769,0.311-1.16,0.386C31.633,20.931,31.186,20.968,30.684,20.968z M30.397,14.517
			c-0.498,0-0.896,0.157-1.196,0.473c-0.3,0.316-0.479,0.776-0.537,1.38h3.346c-0.009-0.608-0.155-1.069-0.439-1.383
			C31.286,14.673,30.895,14.517,30.397,14.517z"/>
		<path fill="#816947" d="M38.549,20.968c-1.146,0-2.043-0.334-2.689-1.003c-0.646-0.668-0.97-1.589-0.97-2.763
			c0-1.204,0.3-2.15,0.9-2.839c0.6-0.688,1.424-1.033,2.473-1.033c0.973,0,1.742,0.296,2.306,0.887s0.847,1.404,0.847,2.439v0.847
			h-4.912c0.022,0.715,0.215,1.265,0.58,1.649c0.364,0.384,0.877,0.576,1.54,0.576c0.436,0,0.841-0.041,1.216-0.123
			s0.779-0.219,1.21-0.41v1.273c-0.382,0.182-0.769,0.311-1.16,0.386C39.498,20.931,39.051,20.968,38.549,20.968z M38.262,14.517
			c-0.498,0-0.896,0.157-1.196,0.473c-0.3,0.316-0.479,0.776-0.537,1.38h3.346c-0.009-0.608-0.155-1.069-0.439-1.383
			C39.151,14.673,38.76,14.517,38.262,14.517z"/>
		<path fill="#816947" d="M51.353,20.835l-0.313-1.026h-0.053c-0.355,0.449-0.713,0.754-1.073,0.916s-0.822,0.243-1.387,0.243
			c-0.724,0-1.29-0.195-1.696-0.586c-0.406-0.391-0.61-0.944-0.61-1.66c0-0.76,0.282-1.333,0.847-1.719
			c0.564-0.387,1.424-0.598,2.58-0.634l1.273-0.04v-0.393c0-0.472-0.11-0.823-0.33-1.057c-0.22-0.233-0.561-0.35-1.023-0.35
			c-0.378,0-0.74,0.055-1.086,0.166s-0.68,0.242-1,0.394l-0.506-1.12c0.4-0.209,0.837-0.367,1.313-0.477
			c0.476-0.108,0.924-0.163,1.346-0.163c0.938,0,1.646,0.204,2.123,0.613s0.716,1.051,0.716,1.926v4.966H51.353z M49.02,19.769
			c0.568,0,1.025-0.159,1.37-0.477c0.344-0.317,0.516-0.763,0.516-1.336v-0.641l-0.946,0.04c-0.738,0.027-1.274,0.15-1.609,0.37
			c-0.336,0.22-0.503,0.557-0.503,1.01c0,0.329,0.098,0.583,0.293,0.764C48.335,19.679,48.629,19.769,49.02,19.769z"/>
		<path fill="#816947" d="M56.225,20.835h-1.566V10.464h1.566V20.835z"/>
		<path fill="#816947" d="M60.03,20.835h-1.566V10.464h1.566V20.835z"/>
		<path fill="#816947" d="M68.788,20.968c-1.115,0-1.963-0.325-2.542-0.976c-0.58-0.651-0.87-1.586-0.87-2.803
			c0-1.24,0.303-2.193,0.91-2.859c0.606-0.667,1.483-1,2.629-1c0.778,0,1.478,0.145,2.1,0.434l-0.473,1.26
			c-0.662-0.258-1.208-0.387-1.64-0.387c-1.275,0-1.913,0.847-1.913,2.539c0,0.826,0.159,1.447,0.477,1.863
			c0.317,0.415,0.783,0.623,1.396,0.623c0.698,0,1.357-0.174,1.979-0.521v1.367c-0.28,0.164-0.579,0.282-0.896,0.353
			C69.627,20.933,69.241,20.968,68.788,20.968z"/>
		<path fill="#816947" d="M79.112,17.136c0,1.204-0.309,2.145-0.927,2.819c-0.617,0.676-1.477,1.013-2.579,1.013
			c-0.689,0-1.297-0.155-1.826-0.466c-0.529-0.312-0.936-0.758-1.22-1.34c-0.285-0.582-0.427-1.258-0.427-2.026
			c0-1.195,0.307-2.128,0.92-2.799s1.478-1.007,2.593-1.007c1.066,0,1.911,0.344,2.533,1.03
			C78.801,15.046,79.112,15.972,79.112,17.136z M73.747,17.136c0,1.702,0.628,2.553,1.886,2.553c1.244,0,1.866-0.851,1.866-2.553
			c0-1.684-0.627-2.526-1.88-2.526c-0.658,0-1.134,0.218-1.43,0.653S73.747,16.322,73.747,17.136z"/>
		<path fill="#816947" d="M87.124,20.835h-1.573v-4.546c0-0.563-0.107-0.985-0.32-1.263c-0.213-0.277-0.546-0.417-1-0.417
			c-0.604,0-1.047,0.197-1.33,0.59c-0.282,0.394-0.423,1.048-0.423,1.963v3.673h-1.566v-7.371h1.227l0.22,0.966h0.08
			c0.205-0.351,0.501-0.622,0.89-0.812c0.389-0.191,0.816-0.287,1.283-0.287c1.133,0,1.884,0.387,2.253,1.16h0.106
			c0.218-0.364,0.524-0.649,0.92-0.854s0.849-0.307,1.359-0.307c0.88,0,1.521,0.223,1.923,0.667
			c0.402,0.444,0.604,1.121,0.604,2.032v4.806h-1.566v-4.546c0-0.563-0.108-0.985-0.323-1.263c-0.216-0.277-0.55-0.417-1.003-0.417
			c-0.609,0-1.054,0.19-1.336,0.57s-0.423,0.963-0.423,1.75V20.835z"/>
		<path fill="#816947" d="M100.174,20.835h-1.572v-4.546c0-0.563-0.107-0.985-0.32-1.263s-0.547-0.417-1-0.417
			c-0.604,0-1.047,0.197-1.33,0.59c-0.282,0.394-0.423,1.048-0.423,1.963v3.673h-1.566v-7.371h1.227l0.22,0.966h0.08
			c0.205-0.351,0.501-0.622,0.89-0.812c0.39-0.191,0.816-0.287,1.283-0.287c1.133,0,1.884,0.387,2.253,1.16h0.106
			c0.218-0.364,0.524-0.649,0.92-0.854s0.849-0.307,1.359-0.307c0.88,0,1.521,0.223,1.923,0.667s0.604,1.121,0.604,2.032v4.806
			h-1.566v-4.546c0-0.563-0.107-0.985-0.323-1.263s-0.55-0.417-1.003-0.417c-0.609,0-1.055,0.19-1.336,0.57
			c-0.283,0.38-0.424,0.963-0.424,1.75V20.835z"/>
		<path fill="#816947" d="M106.918,11.511c0-0.28,0.077-0.495,0.23-0.646s0.372-0.227,0.656-0.227c0.275,0,0.49,0.075,0.644,0.227
			s0.229,0.366,0.229,0.646c0,0.267-0.076,0.477-0.229,0.63s-0.368,0.229-0.644,0.229c-0.284,0-0.503-0.076-0.656-0.229
			S106.918,11.777,106.918,11.511z M108.578,20.835h-1.566v-7.371h1.566V20.835z"/>
		<path fill="#816947" d="M113.564,19.702c0.382,0,0.764-0.061,1.146-0.181v1.181c-0.174,0.075-0.396,0.139-0.67,0.189
			s-0.557,0.076-0.85,0.076c-1.484,0-2.227-0.781-2.227-2.346v-3.973h-1.007v-0.692l1.08-0.573l0.533-1.56h0.966v1.64h2.1v1.186
			h-2.1v3.946c0,0.378,0.095,0.656,0.283,0.836C113.01,19.612,113.258,19.702,113.564,19.702z"/>
		<path fill="#816947" d="M122.395,20.835h-1.572v-4.546c0-0.563-0.107-0.985-0.32-1.263s-0.547-0.417-1-0.417
			c-0.604,0-1.047,0.197-1.329,0.59c-0.282,0.394-0.423,1.048-0.423,1.963v3.673h-1.566v-7.371h1.227l0.219,0.966h0.08
			c0.205-0.351,0.502-0.622,0.891-0.812c0.389-0.191,0.816-0.287,1.283-0.287c1.133,0,1.883,0.387,2.252,1.16h0.107
			c0.217-0.364,0.523-0.649,0.92-0.854c0.395-0.204,0.848-0.307,1.359-0.307c0.879,0,1.521,0.223,1.922,0.667
			c0.402,0.444,0.604,1.121,0.604,2.032v4.806h-1.566v-4.546c0-0.563-0.107-0.985-0.322-1.263c-0.217-0.277-0.551-0.417-1.004-0.417
			c-0.608,0-1.054,0.19-1.336,0.57s-0.424,0.963-0.424,1.75V20.835z"/>
		<path fill="#816947" d="M132.452,20.968c-1.146,0-2.043-0.334-2.689-1.003c-0.646-0.668-0.97-1.589-0.97-2.763
			c0-1.204,0.301-2.15,0.9-2.839s1.424-1.033,2.473-1.033c0.973,0,1.741,0.296,2.306,0.887s0.847,1.404,0.847,2.439v0.847h-4.912
			c0.021,0.715,0.215,1.265,0.58,1.649c0.363,0.384,0.877,0.576,1.539,0.576c0.436,0,0.841-0.041,1.217-0.123
			c0.375-0.082,0.778-0.219,1.209-0.41v1.273c-0.382,0.182-0.769,0.311-1.159,0.386C133.4,20.931,132.954,20.968,132.452,20.968z
			 M132.166,14.517c-0.498,0-0.896,0.157-1.197,0.473c-0.299,0.316-0.479,0.776-0.536,1.38h3.346
			c-0.009-0.608-0.155-1.069-0.439-1.383S132.663,14.517,132.166,14.517z"/>
		<path fill="#816947" d="M143.583,20.835h-1.573v-4.532c0-0.568-0.114-0.993-0.344-1.273c-0.229-0.279-0.592-0.42-1.09-0.42
			c-0.662,0-1.146,0.196-1.452,0.587s-0.46,1.047-0.46,1.966v3.673h-1.566v-7.371h1.227l0.22,0.966h0.08
			c0.222-0.351,0.538-0.622,0.946-0.812c0.408-0.191,0.862-0.287,1.359-0.287c1.77,0,2.653,0.899,2.653,2.699V20.835z"/>
		<path fill="#816947" d="M148.508,19.702c0.383,0,0.765-0.061,1.146-0.181v1.181c-0.173,0.075-0.396,0.139-0.67,0.189
			s-0.557,0.076-0.85,0.076c-1.484,0-2.226-0.781-2.226-2.346v-3.973h-1.007v-0.692l1.08-0.573l0.533-1.56h0.967v1.64h2.1v1.186
			h-2.1v3.946c0,0.378,0.094,0.656,0.283,0.836C147.954,19.612,148.201,19.702,148.508,19.702z"/>
		<path fill="#816947" d="M156.08,18.735c0,0.72-0.262,1.272-0.787,1.656c-0.523,0.385-1.274,0.576-2.252,0.576
			c-0.982,0-1.771-0.148-2.366-0.446v-1.353c0.866,0.399,1.673,0.6,2.419,0.6c0.965,0,1.447-0.291,1.447-0.873
			c0-0.187-0.054-0.342-0.16-0.467c-0.107-0.124-0.283-0.253-0.527-0.387c-0.244-0.133-0.584-0.284-1.02-0.453
			c-0.849-0.328-1.423-0.657-1.723-0.986s-0.449-0.755-0.449-1.279c0-0.631,0.254-1.121,0.763-1.47s1.2-0.523,2.076-0.523
			c0.866,0,1.687,0.176,2.459,0.526l-0.507,1.18c-0.795-0.328-1.463-0.493-2.006-0.493c-0.826,0-1.24,0.235-1.24,0.707
			c0,0.23,0.108,0.426,0.324,0.586c0.215,0.16,0.686,0.38,1.41,0.66c0.607,0.235,1.051,0.451,1.326,0.646s0.479,0.421,0.613,0.677
			C156.014,18.074,156.08,18.38,156.08,18.735z"/>
		<path fill="#816947" d="M157.539,20.002c0-0.324,0.085-0.573,0.254-0.747c0.169-0.173,0.413-0.26,0.733-0.26
			c0.324,0,0.571,0.09,0.739,0.271c0.17,0.18,0.254,0.425,0.254,0.736c0,0.315-0.086,0.565-0.257,0.75
			c-0.171,0.184-0.417,0.276-0.736,0.276c-0.32,0-0.564-0.091-0.733-0.273C157.624,20.573,157.539,20.321,157.539,20.002z"/>
	</g>
	<g enable-background="new    ">
		<path fill="#816947" d="M24.566,36.095H19.97V27.85h4.596v0.852h-3.638v2.656h3.417v0.846h-3.417v3.034h3.638V36.095z"/>
		<path fill="#816947" d="M27.606,36.095l-2.346-6.181h1.004l1.331,3.665c0.301,0.857,0.477,1.414,0.53,1.67h0.045
			c0.041-0.199,0.172-0.612,0.392-1.238c0.22-0.626,0.713-1.991,1.48-4.097h1.004L28.7,36.095H27.606z"/>
		<path fill="#816947" d="M34.65,36.208c-0.914,0-1.634-0.278-2.163-0.835s-0.792-1.329-0.792-2.318
			c0-0.996,0.246-1.787,0.736-2.374c0.49-0.587,1.149-0.88,1.977-0.88c0.774,0,1.387,0.255,1.838,0.765
			c0.451,0.509,0.677,1.181,0.677,2.016v0.593h-4.258c0.019,0.726,0.202,1.276,0.55,1.652s0.837,0.563,1.469,0.563
			c0.666,0,1.323-0.139,1.974-0.417v0.834c-0.331,0.144-0.644,0.246-0.939,0.308C35.424,36.177,35.067,36.208,34.65,36.208z
			 M34.396,30.585c-0.497,0-0.892,0.161-1.188,0.484c-0.295,0.324-0.469,0.771-0.521,1.343h3.231c0-0.59-0.131-1.042-0.395-1.356
			C35.261,30.742,34.885,30.585,34.396,30.585z"/>
		<path fill="#816947" d="M42.749,36.095v-3.998c0-0.504-0.115-0.88-0.344-1.128c-0.229-0.249-0.588-0.373-1.077-0.373
			c-0.647,0-1.121,0.175-1.421,0.524s-0.451,0.928-0.451,1.731v3.243h-0.936v-6.181h0.761l0.152,0.846h0.045
			c0.192-0.305,0.46-0.541,0.807-0.708c0.346-0.167,0.731-0.251,1.156-0.251c0.744,0,1.305,0.18,1.681,0.539
			c0.375,0.358,0.564,0.933,0.564,1.723v4.032H42.749z"/>
		<path fill="#816947" d="M52.838,36.095v-3.998c0-0.504-0.115-0.88-0.344-1.128c-0.229-0.249-0.588-0.373-1.077-0.373
			c-0.647,0-1.121,0.175-1.421,0.524s-0.451,0.928-0.451,1.731v3.243h-0.936v-6.181h0.761l0.152,0.846h0.045
			c0.192-0.305,0.46-0.541,0.807-0.708c0.346-0.167,0.731-0.251,1.156-0.251c0.744,0,1.305,0.18,1.681,0.539
			c0.375,0.358,0.564,0.933,0.564,1.723v4.032H52.838z"/>
		<path fill="#816947" d="M61.032,32.999c0,1.007-0.254,1.794-0.761,2.359c-0.508,0.566-1.209,0.85-2.104,0.85
			c-0.553,0-1.043-0.13-1.472-0.39s-0.759-0.632-0.993-1.116c-0.233-0.485-0.35-1.053-0.35-1.703c0-1.008,0.252-1.793,0.756-2.355
			c0.504-0.562,1.203-0.843,2.098-0.843c0.864,0,1.552,0.288,2.061,0.863S61.032,32.018,61.032,32.999z M56.323,32.999
			c0,0.789,0.158,1.391,0.474,1.805c0.316,0.413,0.78,0.62,1.393,0.62s1.078-0.206,1.396-0.618c0.317-0.411,0.476-1.014,0.476-1.807
			c0-0.786-0.159-1.383-0.476-1.791c-0.318-0.408-0.787-0.612-1.407-0.612c-0.613,0-1.075,0.201-1.387,0.604
			C56.479,31.602,56.323,32.201,56.323,32.999z"/>
		<path fill="#816947" d="M66.903,36.095v-3.998c0-0.504-0.115-0.88-0.344-1.128c-0.229-0.249-0.588-0.373-1.077-0.373
			c-0.647,0-1.121,0.175-1.421,0.524s-0.451,0.928-0.451,1.731v3.243h-0.936v-6.181h0.761l0.152,0.846h0.045
			c0.192-0.305,0.46-0.541,0.807-0.708c0.346-0.167,0.731-0.251,1.156-0.251c0.744,0,1.305,0.18,1.681,0.539
			c0.375,0.358,0.564,0.933,0.564,1.723v4.032H66.903z"/>
		<path fill="#816947" d="M69.244,33.427V32.57h2.769v0.856H69.244z"/>
		<path fill="#816947" d="M73.62,36.095V27.85h0.958v8.245H73.62z"/>
		<path fill="#816947" d="M77.799,32.666v3.429H76.84V27.85h2.261c1.011,0,1.759,0.193,2.242,0.581
			c0.483,0.387,0.725,0.97,0.725,1.748c0,1.091-0.553,1.827-1.658,2.211l2.239,3.705h-1.134l-1.996-3.429H77.799z M77.799,31.843
			h1.314c0.677,0,1.173-0.135,1.489-0.403c0.316-0.269,0.474-0.672,0.474-1.21c0-0.545-0.161-0.938-0.482-1.179
			s-0.837-0.361-1.548-0.361h-1.247V31.843z"/>
		<path fill="#816947" d="M87.628,36.095l-2.797-7.309h-0.045c0.053,0.579,0.079,1.267,0.079,2.063v5.245H83.98V27.85h1.443
			l2.611,6.802h0.045l2.634-6.802h1.433v8.245h-0.959v-5.312c0-0.609,0.026-1.271,0.079-1.985h-0.045l-2.82,7.298H87.628z"/>
		<path fill="#816947" d="M93.748,33.427V32.57h2.769v0.856H93.748z"/>
		<path fill="#816947" d="M100.803,29.801c0.275,0,0.521,0.022,0.739,0.067l-0.13,0.869c-0.256-0.057-0.481-0.085-0.677-0.085
			c-0.5,0-0.928,0.203-1.282,0.609c-0.355,0.406-0.533,0.911-0.533,1.517v3.316h-0.937v-6.181h0.772l0.107,1.145h0.045
			c0.229-0.402,0.506-0.713,0.829-0.931S100.416,29.801,100.803,29.801z"/>
		<path fill="#816947" d="M105.309,36.208c-0.913,0-1.634-0.278-2.162-0.835s-0.793-1.329-0.793-2.318
			c0-0.996,0.246-1.787,0.736-2.374s1.15-0.88,1.977-0.88c0.775,0,1.388,0.255,1.839,0.765c0.451,0.509,0.677,1.181,0.677,2.016
			v0.593h-4.258c0.019,0.726,0.202,1.276,0.55,1.652s0.837,0.563,1.47,0.563c0.665,0,1.322-0.139,1.973-0.417v0.834
			c-0.33,0.144-0.643,0.246-0.938,0.308C106.083,36.177,105.727,36.208,105.309,36.208z M105.056,30.585
			c-0.497,0-0.892,0.161-1.188,0.484c-0.295,0.324-0.469,0.771-0.521,1.343h3.231c0-0.59-0.131-1.042-0.395-1.356
			C105.92,30.742,105.545,30.585,105.056,30.585z"/>
		<path fill="#816947" d="M110.531,36.095l-2.346-6.181h1.004l1.33,3.665c0.301,0.857,0.478,1.414,0.53,1.67h0.046
			c0.041-0.199,0.172-0.612,0.392-1.238s0.714-1.991,1.479-4.097h1.004l-2.346,6.181H110.531z"/>
		<path fill="#816947" d="M114.885,28.238c0-0.214,0.053-0.371,0.158-0.471s0.237-0.149,0.395-0.149c0.15,0,0.281,0.051,0.39,0.152
			s0.163,0.258,0.163,0.468c0,0.211-0.055,0.368-0.163,0.472s-0.239,0.154-0.39,0.154c-0.157,0-0.289-0.051-0.395-0.154
			S114.885,28.449,114.885,28.238z M115.9,36.095h-0.936v-6.181h0.936V36.095z"/>
		<path fill="#816947" d="M120.496,36.208c-0.913,0-1.634-0.278-2.162-0.835s-0.793-1.329-0.793-2.318
			c0-0.996,0.246-1.787,0.736-2.374s1.15-0.88,1.977-0.88c0.775,0,1.388,0.255,1.839,0.765c0.451,0.509,0.677,1.181,0.677,2.016
			v0.593h-4.258c0.019,0.726,0.202,1.276,0.55,1.652s0.837,0.563,1.47,0.563c0.665,0,1.322-0.139,1.973-0.417v0.834
			c-0.33,0.144-0.643,0.246-0.938,0.308C121.271,36.177,120.914,36.208,120.496,36.208z M120.243,30.585
			c-0.497,0-0.892,0.161-1.188,0.484c-0.295,0.324-0.469,0.771-0.521,1.343h3.231c0-0.59-0.131-1.042-0.395-1.356
			C121.107,30.742,120.732,30.585,120.243,30.585z"/>
		<path fill="#816947" d="M129.413,36.095l-1.134-3.626c-0.071-0.222-0.205-0.726-0.4-1.512h-0.045
			c-0.15,0.658-0.281,1.166-0.395,1.522l-1.168,3.615h-1.082l-1.687-6.181h0.981c0.398,1.553,0.701,2.734,0.91,3.547
			s0.328,1.359,0.358,1.642h0.045c0.042-0.215,0.108-0.492,0.2-0.832c0.092-0.341,0.172-0.61,0.24-0.81l1.133-3.547h1.016
			l1.105,3.547c0.211,0.646,0.354,1.19,0.429,1.63h0.045c0.015-0.136,0.056-0.344,0.121-0.626s0.458-1.799,1.176-4.551h0.97
			l-1.709,6.181H129.413z"/>
		<path fill="#816947" d="M135.961,36.208c-0.914,0-1.635-0.278-2.163-0.835s-0.792-1.329-0.792-2.318
			c0-0.996,0.245-1.787,0.736-2.374c0.49-0.587,1.148-0.88,1.977-0.88c0.773,0,1.387,0.255,1.838,0.765
			c0.451,0.509,0.677,1.181,0.677,2.016v0.593h-4.258c0.019,0.726,0.202,1.276,0.55,1.652s0.838,0.563,1.469,0.563
			c0.666,0,1.324-0.139,1.975-0.417v0.834c-0.331,0.144-0.645,0.246-0.939,0.308C136.734,36.177,136.378,36.208,135.961,36.208z
			 M135.707,30.585c-0.496,0-0.893,0.161-1.188,0.484c-0.295,0.324-0.469,0.771-0.521,1.343h3.231c0-0.59-0.132-1.042-0.395-1.356
			C136.572,30.742,136.195,30.585,135.707,30.585z"/>
		<path fill="#816947" d="M144.037,35.266h-0.051c-0.433,0.628-1.08,0.942-1.94,0.942c-0.809,0-1.437-0.276-1.887-0.829
			c-0.449-0.553-0.674-1.339-0.674-2.357c0-1.02,0.226-1.811,0.677-2.375c0.451-0.563,1.079-0.846,1.884-0.846
			c0.839,0,1.481,0.305,1.929,0.914h0.073l-0.04-0.446l-0.021-0.434v-2.516h0.936v8.775h-0.762L144.037,35.266z M142.164,35.424
			c0.639,0,1.104-0.174,1.391-0.521s0.432-0.909,0.432-1.684v-0.197c0-0.876-0.146-1.501-0.438-1.876
			c-0.291-0.374-0.757-0.561-1.396-0.561c-0.549,0-0.969,0.213-1.26,0.64s-0.438,1.029-0.438,1.808c0,0.79,0.145,1.386,0.435,1.788
			S141.604,35.424,142.164,35.424z"/>
		<path fill="#816947" d="M155.242,32.999c0,1.007-0.254,1.794-0.762,2.359c-0.508,0.566-1.209,0.85-2.104,0.85
			c-0.553,0-1.043-0.13-1.472-0.39s-0.759-0.632-0.993-1.116c-0.232-0.485-0.35-1.053-0.35-1.703c0-1.008,0.252-1.793,0.756-2.355
			c0.504-0.562,1.203-0.843,2.099-0.843c0.864,0,1.552,0.288,2.062,0.863C154.987,31.239,155.242,32.018,155.242,32.999z
			 M150.533,32.999c0,0.789,0.158,1.391,0.474,1.805c0.315,0.413,0.78,0.62,1.394,0.62c0.612,0,1.078-0.206,1.396-0.618
			c0.317-0.411,0.476-1.014,0.476-1.807c0-0.786-0.158-1.383-0.476-1.791s-0.787-0.612-1.407-0.612
			c-0.613,0-1.075,0.201-1.387,0.604C150.689,31.602,150.533,32.201,150.533,32.999z"/>
		<path fill="#816947" d="M161.113,36.095v-3.998c0-0.504-0.115-0.88-0.344-1.128c-0.229-0.249-0.588-0.373-1.077-0.373
			c-0.647,0-1.12,0.175-1.421,0.524s-0.451,0.928-0.451,1.731v3.243h-0.937v-6.181h0.761l0.152,0.846h0.045
			c0.192-0.305,0.461-0.541,0.807-0.708s0.731-0.251,1.156-0.251c0.744,0,1.305,0.18,1.682,0.539
			c0.375,0.358,0.563,0.933,0.563,1.723v4.032H161.113z"/>
		<path fill="#816947" d="M166.584,36.208c-0.914,0-1.635-0.278-2.163-0.835s-0.792-1.329-0.792-2.318
			c0-0.996,0.245-1.787,0.736-2.374c0.49-0.587,1.148-0.88,1.977-0.88c0.773,0,1.387,0.255,1.838,0.765
			c0.451,0.509,0.677,1.181,0.677,2.016v0.593h-4.258c0.019,0.726,0.202,1.276,0.55,1.652s0.838,0.563,1.469,0.563
			c0.666,0,1.324-0.139,1.975-0.417v0.834c-0.331,0.144-0.645,0.246-0.939,0.308C167.357,36.177,167.001,36.208,166.584,36.208z
			 M166.33,30.585c-0.496,0-0.893,0.161-1.188,0.484c-0.295,0.324-0.469,0.771-0.521,1.343h3.231c0-0.59-0.132-1.042-0.395-1.356
			C167.195,30.742,166.818,30.585,166.33,30.585z"/>
		<path fill="#816947" d="M174.439,34.408c0,0.575-0.214,1.02-0.643,1.331c-0.429,0.312-1.03,0.469-1.805,0.469
			c-0.82,0-1.459-0.13-1.918-0.39V34.95c0.297,0.15,0.616,0.269,0.957,0.355c0.34,0.086,0.668,0.129,0.983,0.129
			c0.489,0,0.864-0.078,1.128-0.233c0.264-0.156,0.395-0.395,0.395-0.714c0-0.24-0.104-0.446-0.312-0.617s-0.615-0.373-1.221-0.606
			c-0.576-0.214-0.984-0.401-1.227-0.562c-0.243-0.159-0.424-0.341-0.542-0.544s-0.178-0.445-0.178-0.728
			c0-0.504,0.205-0.901,0.614-1.192c0.41-0.292,0.973-0.438,1.688-0.438c0.665,0,1.315,0.136,1.951,0.406l-0.333,0.762
			c-0.62-0.256-1.183-0.384-1.687-0.384c-0.443,0-0.778,0.069-1.004,0.209c-0.226,0.139-0.338,0.33-0.338,0.575
			c0,0.165,0.042,0.306,0.127,0.423c0.084,0.116,0.221,0.228,0.408,0.332c0.188,0.105,0.549,0.258,1.083,0.457
			c0.733,0.268,1.229,0.536,1.485,0.807C174.311,33.658,174.439,33.999,174.439,34.408z"/>
	</g>
</g>
</svg>
