<?xml version="1.0" encoding="utf-8"?>
<!-- Generator: Adobe Illustrator 15.1.0, SVG Export Plug-In . SVG Version: 6.00 Build 0)  -->
<!DOCTYPE svg PUBLIC "-//W3C//DTD SVG 1.1//EN" "http://www.w3.org/Graphics/SVG/1.1/DTD/svg11.dtd">
<svg version="1.1" xmlns="http://www.w3.org/2000/svg" xmlns:xlink="http://www.w3.org/1999/xlink" x="0px" y="0px" width="191px"
	 height="47px" viewBox="0 0 191 47" enable-background="new 0 0 191 47" xml:space="preserve">
<g id="Layer_1" display="none">
	<rect x="0" display="inline" fill="#F8E64D" width="190.679" height="47.25"/>
	<rect x="0" display="inline" fill="none" stroke="#F9EC00" stroke-width="0.525" width="190.679" height="47.25"/>
	
		<text transform="matrix(1 0 0 1 18.8403 20.835)" display="inline" fill="#816947" font-family="'OpenSans-Semibold'" font-size="13.65">See all commitments.</text>
	
		<text transform="matrix(1 0 0 1 160.4062 20.835)" display="inline" fill="#816947" font-family="'OpenSans-Semibold'" font-size="11.55"> </text>
	
		<text transform="matrix(1 0 0 1 163.4082 20.835)" display="inline" fill="#816947" font-family="'OpenSans-Semibold'" font-size="11.55"> </text>
	<text transform="matrix(1 0 0 1 18.8364 36.0947)" display="inline" fill="#816947" font-family="'OpenSans'" font-size="11.55">Even non-IRM-reviewed ones</text>
</g>
<g id="Layer_1_copy">
	<rect x="0" fill="#F8E64D" width="190.679" height="47.25"/>
	<rect x="0" fill="none" stroke="#F9EC00" stroke-width="0.525" width="190.679" height="47.25"/>
	<g>
		<path fill="#816947" d="M25.745,18.189c0,0.866-0.313,1.546-0.939,2.04s-1.491,0.74-2.593,0.74s-2.004-0.171-2.706-0.513v-1.506
			c0.444,0.209,0.917,0.373,1.417,0.493c0.5,0.12,0.965,0.18,1.396,0.18c0.631,0,1.097-0.12,1.396-0.36
			c0.3-0.24,0.45-0.562,0.45-0.967c0-0.364-0.138-0.673-0.413-0.926s-0.844-0.553-1.706-0.9c-0.889-0.36-1.516-0.771-1.88-1.233
			c-0.364-0.462-0.546-1.018-0.546-1.666c0-0.813,0.289-1.453,0.867-1.92c0.577-0.466,1.353-0.7,2.326-0.7
			c0.933,0,1.862,0.205,2.786,0.613l-0.506,1.3c-0.867-0.364-1.64-0.547-2.319-0.547c-0.516,0-0.907,0.112-1.173,0.337
			c-0.267,0.224-0.4,0.521-0.4,0.89c0,0.253,0.053,0.47,0.16,0.65c0.106,0.18,0.282,0.35,0.526,0.51
			c0.244,0.16,0.684,0.371,1.32,0.633c0.715,0.298,1.24,0.575,1.573,0.833c0.333,0.258,0.578,0.549,0.733,0.873
			C25.667,17.367,25.745,17.749,25.745,18.189z"/>
		<path fill="#816947" d="M30.684,20.968c-1.146,0-2.043-0.334-2.689-1.003c-0.646-0.669-0.97-1.59-0.97-2.763
			c0-1.204,0.3-2.151,0.9-2.839c0.6-0.689,1.424-1.033,2.473-1.033c0.973,0,1.742,0.295,2.306,0.887
			c0.564,0.591,0.847,1.404,0.847,2.439v0.847h-4.912c0.022,0.715,0.215,1.265,0.58,1.649c0.364,0.385,0.877,0.577,1.54,0.577
			c0.436,0,0.841-0.041,1.216-0.123c0.375-0.083,0.779-0.219,1.21-0.41v1.273c-0.382,0.182-0.769,0.311-1.16,0.387
			C31.633,20.931,31.186,20.968,30.684,20.968z M30.397,14.517c-0.498,0-0.896,0.158-1.196,0.473s-0.479,0.775-0.537,1.379h3.346
			c-0.009-0.608-0.155-1.069-0.439-1.383C31.286,14.673,30.895,14.517,30.397,14.517z"/>
		<path fill="#816947" d="M38.549,20.968c-1.146,0-2.043-0.334-2.689-1.003c-0.646-0.669-0.97-1.59-0.97-2.763
			c0-1.204,0.3-2.151,0.9-2.839c0.6-0.689,1.424-1.033,2.473-1.033c0.973,0,1.742,0.295,2.306,0.887
			c0.564,0.591,0.847,1.404,0.847,2.439v0.847h-4.912c0.022,0.715,0.215,1.265,0.58,1.649c0.364,0.385,0.877,0.577,1.54,0.577
			c0.436,0,0.841-0.041,1.216-0.123c0.375-0.083,0.779-0.219,1.21-0.41v1.273c-0.382,0.182-0.769,0.311-1.16,0.387
			C39.498,20.931,39.051,20.968,38.549,20.968z M38.262,14.517c-0.498,0-0.896,0.158-1.196,0.473s-0.479,0.775-0.537,1.379h3.346
			c-0.009-0.608-0.155-1.069-0.439-1.383C39.151,14.673,38.76,14.517,38.262,14.517z"/>
		<path fill="#816947" d="M51.353,20.835l-0.313-1.026h-0.053c-0.355,0.449-0.713,0.754-1.073,0.917s-0.822,0.243-1.387,0.243
			c-0.724,0-1.29-0.195-1.696-0.586c-0.406-0.391-0.61-0.944-0.61-1.66c0-0.76,0.282-1.333,0.847-1.72
			c0.564-0.386,1.424-0.598,2.58-0.633l1.273-0.04v-0.394c0-0.471-0.11-0.823-0.33-1.056c-0.22-0.233-0.561-0.35-1.023-0.35
			c-0.378,0-0.74,0.056-1.086,0.167c-0.347,0.111-0.68,0.242-1,0.394l-0.506-1.12c0.4-0.208,0.837-0.367,1.313-0.476
			s0.924-0.164,1.346-0.164c0.938,0,1.646,0.205,2.123,0.613s0.716,1.051,0.716,1.926v4.965H51.353z M49.02,19.769
			c0.568,0,1.025-0.159,1.37-0.477c0.344-0.317,0.516-0.763,0.516-1.336v-0.64l-0.946,0.04c-0.738,0.026-1.274,0.15-1.609,0.37
			c-0.336,0.22-0.503,0.557-0.503,1.01c0,0.329,0.098,0.583,0.293,0.763C48.335,19.679,48.629,19.769,49.02,19.769z"/>
		<path fill="#816947" d="M56.225,20.835h-1.566V10.464h1.566V20.835z"/>
		<path fill="#816947" d="M60.03,20.835h-1.566V10.464h1.566V20.835z"/>
		<path fill="#816947" d="M68.788,20.968c-1.115,0-1.963-0.326-2.542-0.977c-0.58-0.651-0.87-1.585-0.87-2.803
			c0-1.239,0.303-2.192,0.91-2.859c0.606-0.667,1.483-1,2.629-1c0.778,0,1.478,0.145,2.1,0.433l-0.473,1.26
			c-0.662-0.257-1.208-0.386-1.64-0.386c-1.275,0-1.913,0.846-1.913,2.539c0,0.827,0.159,1.448,0.477,1.863
			c0.317,0.416,0.783,0.624,1.396,0.624c0.698,0,1.357-0.173,1.979-0.52v1.366c-0.28,0.165-0.579,0.282-0.896,0.354
			C69.627,20.933,69.241,20.968,68.788,20.968z"/>
		<path fill="#816947" d="M79.112,17.136c0,1.204-0.309,2.144-0.927,2.819c-0.617,0.676-1.477,1.013-2.579,1.013
			c-0.689,0-1.297-0.155-1.826-0.466s-0.936-0.758-1.22-1.34c-0.285-0.582-0.427-1.257-0.427-2.026c0-1.195,0.307-2.128,0.92-2.799
			s1.478-1.006,2.593-1.006c1.066,0,1.911,0.343,2.533,1.03S79.112,15.972,79.112,17.136z M73.747,17.136
			c0,1.702,0.628,2.553,1.886,2.553c1.244,0,1.866-0.851,1.866-2.553c0-1.684-0.627-2.526-1.88-2.526
			c-0.658,0-1.134,0.218-1.43,0.653S73.747,16.323,73.747,17.136z"/>
		<path fill="#816947" d="M87.124,20.835h-1.573V16.29c0-0.564-0.107-0.985-0.32-1.263c-0.213-0.278-0.546-0.417-1-0.417
			c-0.604,0-1.047,0.197-1.33,0.59s-0.423,1.047-0.423,1.963v3.672h-1.566v-7.372h1.227l0.22,0.966h0.08
			c0.205-0.351,0.501-0.622,0.89-0.813c0.389-0.191,0.816-0.287,1.283-0.287c1.133,0,1.884,0.387,2.253,1.16h0.106
			c0.218-0.364,0.524-0.648,0.92-0.853c0.396-0.204,0.849-0.307,1.359-0.307c0.88,0,1.521,0.222,1.923,0.667
			c0.402,0.444,0.604,1.122,0.604,2.033v4.806h-1.566V16.29c0-0.564-0.108-0.985-0.323-1.263c-0.216-0.278-0.55-0.417-1.003-0.417
			c-0.609,0-1.054,0.19-1.336,0.57s-0.423,0.963-0.423,1.75V20.835z"/>
		<path fill="#816947" d="M100.174,20.835h-1.573V16.29c0-0.564-0.107-0.985-0.32-1.263c-0.213-0.278-0.546-0.417-1-0.417
			c-0.604,0-1.047,0.197-1.33,0.59s-0.423,1.047-0.423,1.963v3.672h-1.566v-7.372h1.227l0.22,0.966h0.08
			c0.205-0.351,0.501-0.622,0.89-0.813c0.389-0.191,0.816-0.287,1.283-0.287c1.133,0,1.884,0.387,2.253,1.16h0.106
			c0.218-0.364,0.524-0.648,0.92-0.853c0.396-0.204,0.849-0.307,1.359-0.307c0.88,0,1.521,0.222,1.923,0.667
			c0.402,0.444,0.604,1.122,0.604,2.033v4.806h-1.566V16.29c0-0.564-0.108-0.985-0.323-1.263c-0.216-0.278-0.55-0.417-1.003-0.417
			c-0.609,0-1.054,0.19-1.336,0.57s-0.423,0.963-0.423,1.75V20.835z"/>
		<path fill="#816947" d="M106.918,11.511c0-0.28,0.077-0.496,0.23-0.646c0.153-0.151,0.372-0.227,0.657-0.227
			c0.275,0,0.49,0.075,0.643,0.227c0.153,0.151,0.23,0.366,0.23,0.646c0,0.267-0.077,0.477-0.23,0.63s-0.368,0.229-0.643,0.229
			c-0.285,0-0.503-0.076-0.657-0.229S106.918,11.777,106.918,11.511z M108.578,20.835h-1.566v-7.372h1.566V20.835z"/>
		<path fill="#816947" d="M113.564,19.702c0.382,0,0.764-0.06,1.146-0.18v1.18c-0.173,0.076-0.396,0.139-0.67,0.19
			s-0.557,0.077-0.85,0.077c-1.484,0-2.226-0.782-2.226-2.346V14.65h-1.007v-0.693l1.08-0.573l0.533-1.56h0.966v1.64h2.1v1.187h-2.1
			v3.946c0,0.377,0.094,0.656,0.283,0.836C113.01,19.612,113.257,19.702,113.564,19.702z"/>
		<path fill="#816947" d="M122.395,20.835h-1.573V16.29c0-0.564-0.107-0.985-0.32-1.263c-0.213-0.278-0.546-0.417-1-0.417
			c-0.604,0-1.047,0.197-1.33,0.59s-0.423,1.047-0.423,1.963v3.672h-1.566v-7.372h1.227l0.22,0.966h0.08
			c0.205-0.351,0.501-0.622,0.89-0.813c0.389-0.191,0.816-0.287,1.283-0.287c1.133,0,1.884,0.387,2.253,1.16h0.106
			c0.218-0.364,0.524-0.648,0.92-0.853c0.396-0.204,0.849-0.307,1.359-0.307c0.88,0,1.521,0.222,1.923,0.667
			c0.402,0.444,0.604,1.122,0.604,2.033v4.806h-1.566V16.29c0-0.564-0.108-0.985-0.323-1.263c-0.216-0.278-0.55-0.417-1.003-0.417
			c-0.609,0-1.054,0.19-1.336,0.57s-0.423,0.963-0.423,1.75V20.835z"/>
		<path fill="#816947" d="M132.452,20.968c-1.146,0-2.043-0.334-2.689-1.003c-0.646-0.669-0.97-1.59-0.97-2.763
			c0-1.204,0.3-2.151,0.9-2.839c0.6-0.689,1.424-1.033,2.473-1.033c0.973,0,1.742,0.295,2.306,0.887
			c0.564,0.591,0.847,1.404,0.847,2.439v0.847h-4.912c0.022,0.715,0.215,1.265,0.58,1.649c0.364,0.385,0.877,0.577,1.54,0.577
			c0.436,0,0.841-0.041,1.216-0.123c0.375-0.083,0.779-0.219,1.21-0.41v1.273c-0.382,0.182-0.769,0.311-1.16,0.387
			C133.401,20.931,132.954,20.968,132.452,20.968z M132.166,14.517c-0.498,0-0.896,0.158-1.196,0.473s-0.479,0.775-0.537,1.379
			h3.346c-0.009-0.608-0.155-1.069-0.439-1.383C133.054,14.673,132.663,14.517,132.166,14.517z"/>
		<path fill="#816947" d="M143.583,20.835h-1.573v-4.532c0-0.569-0.114-0.993-0.344-1.273c-0.229-0.28-0.592-0.42-1.09-0.42
			c-0.662,0-1.146,0.195-1.452,0.586s-0.46,1.046-0.46,1.966v3.672h-1.566v-7.372h1.227l0.22,0.966h0.08
			c0.222-0.351,0.538-0.622,0.946-0.813s0.862-0.287,1.359-0.287c1.77,0,2.653,0.9,2.653,2.699V20.835z"/>
		<path fill="#816947" d="M148.508,19.702c0.383,0,0.765-0.06,1.146-0.18v1.18c-0.173,0.076-0.396,0.139-0.67,0.19
			s-0.557,0.077-0.85,0.077c-1.484,0-2.226-0.782-2.226-2.346V14.65h-1.007v-0.693l1.08-0.573l0.533-1.56h0.967v1.64h2.1v1.187h-2.1
			v3.946c0,0.377,0.094,0.656,0.283,0.836C147.954,19.612,148.201,19.702,148.508,19.702z"/>
		<path fill="#816947" d="M156.08,18.735c0,0.72-0.262,1.272-0.787,1.656c-0.523,0.384-1.274,0.577-2.252,0.577
			c-0.982,0-1.771-0.149-2.366-0.447v-1.353c0.866,0.399,1.673,0.6,2.419,0.6c0.965,0,1.447-0.291,1.447-0.873
			c0-0.187-0.054-0.342-0.16-0.467c-0.107-0.124-0.283-0.253-0.527-0.386s-0.584-0.285-1.02-0.454
			c-0.849-0.329-1.423-0.657-1.723-0.986c-0.3-0.329-0.449-0.755-0.449-1.28c0-0.631,0.254-1.121,0.763-1.469
			c0.509-0.349,1.2-0.523,2.076-0.523c0.866,0,1.687,0.176,2.459,0.526l-0.507,1.18c-0.795-0.329-1.463-0.493-2.006-0.493
			c-0.826,0-1.24,0.236-1.24,0.707c0,0.231,0.108,0.427,0.324,0.586c0.215,0.16,0.686,0.38,1.41,0.66
			c0.607,0.235,1.051,0.451,1.326,0.646s0.479,0.421,0.613,0.676C156.014,18.075,156.08,18.38,156.08,18.735z"/>
		<path fill="#816947" d="M157.539,20.002c0-0.324,0.085-0.573,0.254-0.747s0.413-0.26,0.733-0.26c0.324,0,0.571,0.09,0.739,0.27
			c0.17,0.18,0.254,0.426,0.254,0.737c0,0.315-0.086,0.565-0.257,0.75c-0.171,0.185-0.417,0.277-0.736,0.277
			c-0.32,0-0.564-0.091-0.733-0.273S157.539,20.322,157.539,20.002z"/>
	</g>
	<g>
		<path fill="#816947" d="M24.566,36.095H19.97V27.85h4.596v0.852h-3.638v2.656h3.417v0.846h-3.417v3.034h3.638V36.095z"/>
		<path fill="#816947" d="M27.606,36.095l-2.346-6.181h1.004l1.331,3.666c0.301,0.857,0.477,1.414,0.53,1.669h0.045
			c0.041-0.2,0.172-0.612,0.392-1.238c0.22-0.626,0.713-1.992,1.48-4.097h1.004L28.7,36.095H27.606z"/>
		<path fill="#816947" d="M34.65,36.207c-0.914,0-1.634-0.277-2.163-0.834s-0.792-1.329-0.792-2.318
			c0-0.997,0.246-1.788,0.736-2.375c0.49-0.586,1.149-0.88,1.977-0.88c0.774,0,1.387,0.255,1.838,0.764
			c0.451,0.51,0.677,1.182,0.677,2.016v0.592h-4.258c0.019,0.726,0.202,1.276,0.55,1.653c0.348,0.375,0.837,0.563,1.469,0.563
			c0.666,0,1.323-0.14,1.974-0.417v0.834c-0.331,0.144-0.644,0.246-0.939,0.308C35.424,36.176,35.067,36.207,34.65,36.207z
			 M34.396,30.585c-0.497,0-0.892,0.162-1.188,0.485c-0.295,0.323-0.469,0.771-0.521,1.342h3.231c0-0.59-0.131-1.042-0.395-1.356
			S34.885,30.585,34.396,30.585z"/>
		<path fill="#816947" d="M42.749,36.095v-3.999c0-0.504-0.115-0.88-0.344-1.128c-0.229-0.248-0.588-0.372-1.077-0.372
			c-0.647,0-1.121,0.175-1.421,0.524s-0.451,0.927-0.451,1.731v3.243h-0.936v-6.181h0.761l0.152,0.846h0.045
			c0.192-0.305,0.46-0.541,0.807-0.708c0.346-0.167,0.731-0.251,1.156-0.251c0.744,0,1.305,0.18,1.681,0.539
			c0.375,0.359,0.564,0.934,0.564,1.723v4.032H42.749z"/>
		<path fill="#816947" d="M52.838,36.095v-3.999c0-0.504-0.115-0.88-0.344-1.128c-0.229-0.248-0.588-0.372-1.077-0.372
			c-0.647,0-1.121,0.175-1.421,0.524s-0.451,0.927-0.451,1.731v3.243h-0.936v-6.181h0.761l0.152,0.846h0.045
			c0.192-0.305,0.46-0.541,0.807-0.708c0.346-0.167,0.731-0.251,1.156-0.251c0.744,0,1.305,0.18,1.681,0.539
			c0.375,0.359,0.564,0.934,0.564,1.723v4.032H52.838z"/>
		<path fill="#816947" d="M61.032,32.999c0,1.008-0.254,1.794-0.761,2.361c-0.508,0.565-1.209,0.848-2.104,0.848
			c-0.553,0-1.043-0.129-1.472-0.389s-0.759-0.632-0.993-1.117c-0.233-0.484-0.35-1.052-0.35-1.703c0-1.007,0.252-1.792,0.756-2.354
			s1.203-0.843,2.098-0.843c0.864,0,1.552,0.288,2.061,0.863S61.032,32.017,61.032,32.999z M56.323,32.999
			c0,0.79,0.158,1.391,0.474,1.804c0.316,0.414,0.78,0.621,1.393,0.621s1.078-0.206,1.396-0.617
			c0.317-0.412,0.476-1.015,0.476-1.808c0-0.786-0.159-1.383-0.476-1.791c-0.318-0.408-0.787-0.612-1.407-0.612
			c-0.613,0-1.075,0.201-1.387,0.604C56.479,31.602,56.323,32.202,56.323,32.999z"/>
		<path fill="#816947" d="M66.903,36.095v-3.999c0-0.504-0.115-0.88-0.344-1.128c-0.229-0.248-0.588-0.372-1.077-0.372
			c-0.647,0-1.121,0.175-1.421,0.524s-0.451,0.927-0.451,1.731v3.243h-0.936v-6.181h0.761l0.152,0.846h0.045
			c0.192-0.305,0.46-0.541,0.807-0.708c0.346-0.167,0.731-0.251,1.156-0.251c0.744,0,1.305,0.18,1.681,0.539
			c0.375,0.359,0.564,0.934,0.564,1.723v4.032H66.903z"/>
		<path fill="#816947" d="M69.244,33.427V32.57h2.769v0.857H69.244z"/>
		<path fill="#816947" d="M73.62,36.095V27.85h0.958v8.245H73.62z"/>
		<path fill="#816947" d="M77.799,32.666v3.429H76.84V27.85h2.261c1.011,0,1.759,0.194,2.242,0.581
			c0.483,0.387,0.725,0.97,0.725,1.748c0,1.09-0.553,1.827-1.658,2.211l2.239,3.705h-1.134l-1.996-3.429H77.799z M77.799,31.842
			h1.314c0.677,0,1.173-0.134,1.489-0.403c0.316-0.269,0.474-0.672,0.474-1.209c0-0.545-0.161-0.938-0.482-1.179
			s-0.837-0.361-1.548-0.361h-1.247V31.842z"/>
		<path fill="#816947" d="M87.628,36.095l-2.797-7.309h-0.045c0.053,0.579,0.079,1.267,0.079,2.064v5.245H83.98V27.85h1.443
			l2.611,6.801h0.045l2.634-6.801h1.433v8.245h-0.959v-5.312c0-0.609,0.026-1.271,0.079-1.985h-0.045l-2.82,7.298H87.628z"/>
		<path fill="#816947" d="M93.748,33.427V32.57h2.769v0.857H93.748z"/>
		<path fill="#816947" d="M100.803,29.801c0.274,0,0.521,0.022,0.739,0.068l-0.13,0.869c-0.256-0.057-0.481-0.085-0.677-0.085
			c-0.5,0-0.928,0.203-1.283,0.609c-0.355,0.406-0.533,0.912-0.533,1.517v3.316h-0.936v-6.181h0.772l0.107,1.145h0.045
			c0.229-0.402,0.506-0.712,0.829-0.931C100.061,29.91,100.416,29.801,100.803,29.801z"/>
		<path fill="#816947" d="M105.309,36.207c-0.914,0-1.634-0.277-2.163-0.834s-0.792-1.329-0.792-2.318
			c0-0.997,0.246-1.788,0.736-2.375c0.49-0.586,1.149-0.88,1.977-0.88c0.774,0,1.387,0.255,1.838,0.764
			c0.451,0.51,0.677,1.182,0.677,2.016v0.592h-4.258c0.019,0.726,0.202,1.276,0.55,1.653c0.348,0.375,0.837,0.563,1.469,0.563
			c0.666,0,1.323-0.14,1.974-0.417v0.834c-0.331,0.144-0.644,0.246-0.939,0.308C106.083,36.176,105.727,36.207,105.309,36.207z
			 M105.056,30.585c-0.497,0-0.892,0.162-1.188,0.485c-0.295,0.323-0.469,0.771-0.521,1.342h3.231c0-0.59-0.131-1.042-0.395-1.356
			S105.544,30.585,105.056,30.585z"/>
		<path fill="#816947" d="M110.531,36.095l-2.346-6.181h1.004l1.331,3.666c0.301,0.857,0.477,1.414,0.53,1.669h0.045
			c0.041-0.2,0.172-0.612,0.392-1.238c0.22-0.626,0.713-1.992,1.48-4.097h1.004l-2.346,6.181H110.531z"/>
		<path fill="#816947" d="M114.885,28.239c0-0.214,0.053-0.371,0.158-0.471c0.105-0.1,0.237-0.149,0.395-0.149
			c0.15,0,0.28,0.051,0.389,0.152s0.164,0.258,0.164,0.468s-0.055,0.368-0.164,0.471c-0.109,0.104-0.239,0.155-0.389,0.155
			c-0.158,0-0.29-0.052-0.395-0.155C114.938,28.606,114.885,28.449,114.885,28.239z M115.9,36.095h-0.936v-6.181h0.936V36.095z"/>
		<path fill="#816947" d="M120.497,36.207c-0.914,0-1.634-0.277-2.163-0.834s-0.792-1.329-0.792-2.318
			c0-0.997,0.246-1.788,0.736-2.375c0.49-0.586,1.149-0.88,1.977-0.88c0.774,0,1.387,0.255,1.838,0.764
			c0.451,0.51,0.677,1.182,0.677,2.016v0.592h-4.258c0.019,0.726,0.202,1.276,0.55,1.653c0.348,0.375,0.837,0.563,1.469,0.563
			c0.666,0,1.323-0.14,1.974-0.417v0.834c-0.331,0.144-0.644,0.246-0.939,0.308C121.271,36.176,120.914,36.207,120.497,36.207z
			 M120.243,30.585c-0.497,0-0.892,0.162-1.188,0.485c-0.295,0.323-0.469,0.771-0.521,1.342h3.231c0-0.59-0.131-1.042-0.395-1.356
			S120.732,30.585,120.243,30.585z"/>
		<path fill="#816947" d="M129.413,36.095l-1.134-3.626c-0.071-0.222-0.205-0.726-0.4-1.511h-0.045
			c-0.15,0.658-0.282,1.166-0.395,1.522l-1.167,3.615h-1.083l-1.686-6.181h0.981c0.398,1.553,0.702,2.735,0.911,3.547
			c0.208,0.812,0.328,1.359,0.358,1.641h0.045c0.042-0.214,0.108-0.49,0.201-0.831c0.092-0.34,0.172-0.61,0.239-0.81l1.134-3.547
			h1.015l1.105,3.547c0.21,0.647,0.353,1.189,0.429,1.63h0.045c0.015-0.136,0.055-0.344,0.121-0.626
			c0.066-0.282,0.458-1.799,1.176-4.551h0.97l-1.709,6.181H129.413z"/>
		<path fill="#816947" d="M135.96,36.207c-0.914,0-1.634-0.277-2.163-0.834s-0.792-1.329-0.792-2.318
			c0-0.997,0.246-1.788,0.736-2.375c0.49-0.586,1.149-0.88,1.977-0.88c0.774,0,1.387,0.255,1.838,0.764
			c0.451,0.51,0.677,1.182,0.677,2.016v0.592h-4.258c0.019,0.726,0.202,1.276,0.55,1.653c0.348,0.375,0.837,0.563,1.469,0.563
			c0.666,0,1.324-0.14,1.974-0.417v0.834c-0.331,0.144-0.645,0.246-0.939,0.308S136.378,36.207,135.96,36.207z M135.707,30.585
			c-0.497,0-0.892,0.162-1.188,0.485c-0.295,0.323-0.469,0.771-0.521,1.342h3.231c0-0.59-0.132-1.042-0.395-1.356
			S136.196,30.585,135.707,30.585z"/>
		<path fill="#816947" d="M144.037,35.266h-0.051c-0.433,0.628-1.08,0.941-1.94,0.941c-0.809,0-1.437-0.275-1.887-0.828
			c-0.449-0.553-0.674-1.339-0.674-2.358c0-1.019,0.226-1.81,0.677-2.374s1.079-0.846,1.884-0.846c0.839,0,1.481,0.305,1.929,0.914
			h0.073l-0.04-0.445l-0.021-0.434v-2.516h0.936v8.775h-0.762L144.037,35.266z M142.164,35.424c0.639,0,1.104-0.174,1.391-0.521
			s0.432-0.909,0.432-1.684v-0.198c0-0.876-0.146-1.501-0.438-1.875s-0.757-0.561-1.396-0.561c-0.549,0-0.969,0.213-1.26,0.64
			s-0.438,1.029-0.438,1.807c0,0.79,0.145,1.386,0.435,1.788S141.604,35.424,142.164,35.424z"/>
		<path fill="#816947" d="M155.242,32.999c0,1.008-0.254,1.794-0.762,2.361c-0.508,0.565-1.209,0.848-2.104,0.848
			c-0.553,0-1.043-0.129-1.472-0.389s-0.759-0.632-0.993-1.117c-0.232-0.484-0.35-1.052-0.35-1.703c0-1.007,0.252-1.792,0.756-2.354
			s1.203-0.843,2.099-0.843c0.864,0,1.552,0.288,2.062,0.863C154.987,31.239,155.242,32.017,155.242,32.999z M150.533,32.999
			c0,0.79,0.158,1.391,0.474,1.804c0.315,0.414,0.78,0.621,1.394,0.621c0.612,0,1.078-0.206,1.396-0.617
			c0.317-0.412,0.476-1.015,0.476-1.808c0-0.786-0.158-1.383-0.476-1.791s-0.787-0.612-1.407-0.612
			c-0.613,0-1.075,0.201-1.387,0.604C150.689,31.602,150.533,32.202,150.533,32.999z"/>
		<path fill="#816947" d="M161.113,36.095v-3.999c0-0.504-0.115-0.88-0.344-1.128c-0.229-0.248-0.588-0.372-1.077-0.372
			c-0.647,0-1.12,0.175-1.421,0.524s-0.451,0.927-0.451,1.731v3.243h-0.937v-6.181h0.761l0.152,0.846h0.045
			c0.192-0.305,0.461-0.541,0.807-0.708c0.346-0.167,0.731-0.251,1.156-0.251c0.744,0,1.305,0.18,1.682,0.539
			c0.375,0.359,0.563,0.934,0.563,1.723v4.032H161.113z"/>
		<path fill="#816947" d="M166.584,36.207c-0.914,0-1.635-0.277-2.163-0.834s-0.792-1.329-0.792-2.318
			c0-0.997,0.245-1.788,0.736-2.375c0.49-0.586,1.148-0.88,1.977-0.88c0.773,0,1.387,0.255,1.838,0.764
			c0.451,0.51,0.677,1.182,0.677,2.016v0.592h-4.258c0.019,0.726,0.202,1.276,0.55,1.653c0.348,0.375,0.838,0.563,1.469,0.563
			c0.666,0,1.324-0.14,1.975-0.417v0.834c-0.331,0.144-0.645,0.246-0.939,0.308S167.001,36.207,166.584,36.207z M166.33,30.585
			c-0.496,0-0.893,0.162-1.188,0.485s-0.469,0.771-0.521,1.342h3.231c0-0.59-0.132-1.042-0.395-1.356S166.818,30.585,166.33,30.585z
			"/>
		<path fill="#816947" d="M174.439,34.409c0,0.576-0.214,1.019-0.643,1.331c-0.429,0.312-1.03,0.468-1.805,0.468
			c-0.82,0-1.459-0.129-1.918-0.389v-0.869c0.297,0.15,0.616,0.27,0.957,0.355c0.34,0.087,0.668,0.131,0.983,0.131
			c0.489,0,0.864-0.078,1.128-0.234s0.395-0.395,0.395-0.714c0-0.24-0.104-0.446-0.312-0.617c-0.209-0.171-0.615-0.374-1.221-0.606
			c-0.576-0.214-0.984-0.401-1.227-0.561c-0.243-0.16-0.424-0.341-0.542-0.544s-0.178-0.445-0.178-0.728
			c0-0.504,0.205-0.901,0.614-1.193c0.41-0.291,0.973-0.437,1.688-0.437c0.665,0,1.315,0.135,1.951,0.406l-0.333,0.761
			c-0.62-0.255-1.183-0.383-1.687-0.383c-0.443,0-0.778,0.069-1.004,0.208s-0.338,0.331-0.338,0.575
			c0,0.166,0.042,0.307,0.127,0.423c0.084,0.117,0.221,0.228,0.408,0.333c0.188,0.105,0.549,0.257,1.083,0.457
			c0.733,0.267,1.229,0.536,1.485,0.807C174.311,33.658,174.439,33.999,174.439,34.409z"/>
	</g>
</g>
</svg>
