<?xml version="1.0" encoding="utf-8"?>
<!-- Generator: Adobe Illustrator 15.1.0, SVG Export Plug-In . SVG Version: 6.00 Build 0)  -->
<!DOCTYPE svg PUBLIC "-//W3C//DTD SVG 1.1//EN" "http://www.w3.org/Graphics/SVG/1.1/DTD/svg11.dtd">
<svg version="1.1" id="Layer_5" xmlns="http://www.w3.org/2000/svg" xmlns:xlink="http://www.w3.org/1999/xlink" x="0px" y="0px"
	 width="272px" height="41px" viewBox="0 0 272 41" enable-background="new 0 0 272 41" xml:space="preserve">
<rect fill="#F8E64D" width="271.413" height="40.5"/>
<rect fill="none" stroke="#F9EC00" stroke-width="0.45" width="271.413" height="40.5"/>
<path fill="#817B00" d="M24.163,22.36c0,1.006-0.364,1.789-1.094,2.353c-0.73,0.562-1.72,0.844-2.97,0.844
	c-1.354,0-2.396-0.174-3.125-0.522v-1.281c0.47,0.198,0.979,0.354,1.531,0.469c0.553,0.115,1.1,0.172,1.642,0.172
	c0.886,0,1.552-0.168,2-0.504c0.447-0.336,0.672-0.803,0.672-1.402c0-0.396-0.079-0.72-0.238-0.973
	c-0.159-0.252-0.425-0.485-0.797-0.699c-0.372-0.213-0.938-0.456-1.699-0.727c-1.062-0.38-1.821-0.831-2.277-1.352
	s-0.684-1.2-0.684-2.039c0-0.88,0.331-1.581,0.992-2.102s1.536-0.781,2.625-0.781c1.136,0,2.18,0.208,3.133,0.625l-0.414,1.156
	c-0.942-0.396-1.858-0.594-2.75-0.594c-0.703,0-1.253,0.151-1.647,0.453c-0.396,0.302-0.595,0.722-0.595,1.258
	c0,0.396,0.073,0.72,0.22,0.973c0.146,0.253,0.392,0.484,0.737,0.695c0.347,0.211,0.876,0.444,1.59,0.699
	c1.198,0.427,2.022,0.886,2.474,1.375C23.938,20.945,24.163,21.58,24.163,22.36z"/>
<path fill="#817B00" d="M29.921,25.557c-1.266,0-2.265-0.385-2.996-1.156c-0.73-0.771-1.098-1.841-1.098-3.21
	c0-1.38,0.34-2.477,1.02-3.289c0.681-0.812,1.594-1.219,2.738-1.219c1.073,0,1.922,0.353,2.547,1.059s0.938,1.637,0.938,2.793v0.82
	h-5.898c0.026,1.004,0.28,1.769,0.762,2.289c0.481,0.521,1.16,0.781,2.035,0.781c0.922,0,1.833-0.192,2.734-0.578v1.156
	c-0.458,0.198-0.893,0.34-1.301,0.426C30.993,25.514,30.499,25.557,29.921,25.557z M29.569,17.768c-0.688,0-1.235,0.224-1.646,0.672
	c-0.409,0.448-0.648,1.068-0.723,1.859h4.477c0-0.817-0.183-1.444-0.547-1.879C30.768,17.985,30.246,17.768,29.569,17.768z"/>
<path fill="#817B00" d="M38.897,25.557c-1.267,0-2.266-0.385-2.996-1.156c-0.731-0.771-1.099-1.841-1.099-3.21
	c0-1.38,0.34-2.477,1.021-3.289c0.68-0.812,1.593-1.219,2.737-1.219c1.073,0,1.923,0.353,2.548,1.059s0.938,1.637,0.938,2.793v0.82
	h-5.897c0.025,1.004,0.279,1.769,0.762,2.289c0.48,0.521,1.16,0.781,2.035,0.781c0.922,0,1.833-0.192,2.733-0.578v1.156
	c-0.458,0.198-0.892,0.34-1.301,0.426S39.477,25.557,38.897,25.557z M38.546,17.768c-0.688,0-1.235,0.224-1.645,0.672
	c-0.409,0.448-0.649,1.068-0.724,1.859h4.478c0-0.817-0.184-1.444-0.547-1.879C39.744,17.985,39.223,17.768,38.546,17.768z"/>
<path fill="#817B00" d="M53.679,25.4l-0.258-1.219h-0.062c-0.428,0.537-0.854,0.9-1.277,1.09c-0.424,0.19-0.954,0.285-1.59,0.285
	c-0.85,0-1.516-0.219-1.996-0.656c-0.48-0.437-0.723-1.06-0.723-1.866c0-1.729,1.383-2.635,4.147-2.719l1.453-0.047v-0.531
	c0-0.672-0.145-1.168-0.434-1.488c-0.289-0.32-0.751-0.48-1.388-0.48c-0.714,0-1.521,0.219-2.422,0.656l-0.397-0.992
	c0.422-0.229,0.884-0.409,1.387-0.539c0.503-0.13,1.007-0.195,1.512-0.195c1.021,0,1.777,0.227,2.271,0.68s0.737,1.18,0.737,2.18
	v5.844h-0.961V25.4z M50.749,24.485c0.808,0,1.441-0.221,1.902-0.663s0.69-1.062,0.69-1.859V21.19l-1.297,0.055
	c-1.031,0.037-1.773,0.197-2.229,0.48c-0.456,0.284-0.685,0.727-0.685,1.324c0,0.469,0.143,0.826,0.426,1.07
	C49.842,24.364,50.238,24.485,50.749,24.485z"/>
<path fill="#817B00" d="M58.608,25.4h-1.298V13.245h1.298V25.4z"/>
<path fill="#817B00" d="M62.655,25.4h-1.297V13.245h1.297V25.4z"/>
<path fill="#817B00" d="M72.983,25.557c-1.239,0-2.199-0.381-2.88-1.145c-0.68-0.764-1.02-1.842-1.02-3.238
	c0-1.432,0.345-2.539,1.035-3.32c0.689-0.781,1.673-1.172,2.949-1.172c0.41,0,0.822,0.044,1.233,0.133s0.734,0.193,0.969,0.312
	l-0.397,1.102c-0.286-0.114-0.6-0.209-0.938-0.285c-0.339-0.075-0.638-0.113-0.897-0.113c-1.739,0-2.609,1.109-2.609,3.328
	c0,1.052,0.212,1.859,0.637,2.422c0.426,0.562,1.055,0.844,1.888,0.844c0.714,0,1.444-0.153,2.194-0.461v1.148
	C74.574,25.408,73.854,25.557,72.983,25.557z"/>
<path fill="#817B00" d="M84.569,21.111c0,1.396-0.353,2.486-1.056,3.27s-1.675,1.176-2.914,1.176c-0.766,0-1.444-0.18-2.039-0.539
	c-0.594-0.358-1.052-0.875-1.375-1.547c-0.322-0.672-0.483-1.458-0.483-2.359c0-1.396,0.349-2.483,1.047-3.262
	c0.698-0.778,1.667-1.168,2.906-1.168c1.198,0,2.148,0.398,2.854,1.195S84.569,19.752,84.569,21.111z M78.046,21.111
	c0,1.094,0.219,1.927,0.656,2.5c0.438,0.573,1.081,0.859,1.93,0.859c0.85,0,1.493-0.285,1.935-0.854
	c0.44-0.57,0.659-1.405,0.659-2.504c0-1.088-0.22-1.915-0.659-2.48c-0.44-0.565-1.091-0.848-1.949-0.848
	c-0.85,0-1.489,0.279-1.922,0.836C78.262,19.177,78.046,20.007,78.046,21.111z"/>
<path fill="#817B00" d="M97.757,25.4v-5.569c0-0.682-0.146-1.194-0.438-1.535s-0.745-0.512-1.359-0.512
	c-0.808,0-1.403,0.232-1.789,0.695c-0.386,0.464-0.578,1.177-0.578,2.141V25.4h-1.297v-5.569c0-0.682-0.146-1.194-0.438-1.535
	s-0.747-0.512-1.367-0.512c-0.812,0-1.407,0.244-1.785,0.73c-0.378,0.487-0.566,1.285-0.566,2.395V25.4h-1.297v-8.562h1.056
	l0.211,1.172h0.062c0.245-0.417,0.59-0.742,1.035-0.977c0.445-0.235,0.944-0.352,1.496-0.352c1.339,0,2.214,0.484,2.625,1.453h0.062
	c0.256-0.448,0.625-0.802,1.109-1.062c0.484-0.26,1.036-0.391,1.656-0.391c0.969,0,1.693,0.249,2.176,0.746
	c0.481,0.498,0.723,1.293,0.723,2.387V25.4H97.757z"/>
<path fill="#817B00" d="M112.64,25.4v-5.569c0-0.682-0.146-1.194-0.438-1.535s-0.745-0.512-1.359-0.512
	c-0.808,0-1.402,0.232-1.789,0.695c-0.386,0.464-0.577,1.177-0.577,2.141V25.4h-1.298v-5.569c0-0.682-0.146-1.194-0.438-1.535
	s-0.747-0.512-1.367-0.512c-0.812,0-1.407,0.244-1.785,0.73c-0.378,0.487-0.565,1.285-0.565,2.395V25.4h-1.297v-8.562h1.055
	l0.211,1.172h0.062c0.245-0.417,0.591-0.742,1.035-0.977c0.445-0.235,0.944-0.352,1.496-0.352c1.339,0,2.214,0.484,2.625,1.453
	h0.062c0.255-0.448,0.625-0.802,1.108-1.062c0.484-0.26,1.036-0.391,1.656-0.391c0.969,0,1.694,0.249,2.176,0.746
	c0.481,0.498,0.724,1.293,0.724,2.387V25.4H112.64z"/>
<path fill="#817B00" d="M116.499,14.518c0-0.297,0.073-0.514,0.219-0.652c0.146-0.138,0.328-0.207,0.547-0.207
	c0.208,0,0.389,0.07,0.539,0.211c0.151,0.141,0.228,0.357,0.228,0.648c0,0.292-0.075,0.509-0.228,0.652
	c-0.15,0.144-0.331,0.215-0.539,0.215c-0.219,0-0.4-0.071-0.547-0.215C116.572,15.027,116.499,14.81,116.499,14.518z M117.905,25.4
	h-1.297v-8.562h1.297V25.4z"/>
<path fill="#817B00" d="M123.421,24.485c0.229,0,0.45-0.017,0.664-0.051s0.383-0.068,0.508-0.104v0.992
	c-0.141,0.067-0.348,0.124-0.621,0.168c-0.272,0.044-0.52,0.065-0.737,0.065c-1.656,0-2.484-0.872-2.484-2.617v-5.094h-1.227V17.22
	l1.227-0.539l0.547-1.828h0.75v1.984h2.484v1.008h-2.484v5.039c0,0.516,0.122,0.912,0.367,1.188
	C122.658,24.349,122.994,24.485,123.421,24.485z"/>
<path fill="#817B00" d="M137.218,25.4v-5.569c0-0.682-0.146-1.194-0.438-1.535s-0.745-0.512-1.359-0.512
	c-0.808,0-1.403,0.232-1.789,0.695c-0.386,0.464-0.578,1.177-0.578,2.141V25.4h-1.297v-5.569c0-0.682-0.146-1.194-0.438-1.535
	s-0.747-0.512-1.367-0.512c-0.812,0-1.407,0.244-1.785,0.73c-0.378,0.487-0.565,1.285-0.565,2.395V25.4h-1.298v-8.562h1.056
	l0.211,1.172h0.062c0.245-0.417,0.59-0.742,1.035-0.977c0.445-0.235,0.944-0.352,1.496-0.352c1.339,0,2.214,0.484,2.625,1.453h0.062
	c0.256-0.448,0.625-0.802,1.109-1.062c0.484-0.26,1.036-0.391,1.656-0.391c0.969,0,1.693,0.249,2.176,0.746
	c0.481,0.498,0.723,1.293,0.723,2.387V25.4H137.218z"/>
<path fill="#817B00" d="M144.804,25.557c-1.266,0-2.265-0.385-2.995-1.156c-0.731-0.771-1.099-1.841-1.099-3.21
	c0-1.38,0.34-2.477,1.021-3.289c0.68-0.812,1.593-1.219,2.737-1.219c1.073,0,1.922,0.353,2.547,1.059s0.938,1.637,0.938,2.793v0.82
	h-5.898c0.026,1.004,0.28,1.769,0.763,2.289c0.48,0.521,1.159,0.781,2.034,0.781c0.923,0,1.834-0.192,2.734-0.578v1.156
	c-0.458,0.198-0.892,0.34-1.301,0.426S145.382,25.557,144.804,25.557z M144.452,17.768c-0.688,0-1.235,0.224-1.646,0.672
	c-0.408,0.448-0.648,1.068-0.723,1.859h4.477c0-0.817-0.183-1.444-0.547-1.879C145.65,17.985,145.129,17.768,144.452,17.768z"/>
<path fill="#817B00" d="M156.022,25.4v-5.539c0-0.698-0.159-1.219-0.478-1.562c-0.318-0.343-0.814-0.516-1.492-0.516
	c-0.896,0-1.552,0.242-1.969,0.727s-0.625,1.284-0.625,2.398V25.4h-1.297v-8.562h1.055l0.211,1.172h0.062
	c0.266-0.422,0.638-0.749,1.117-0.98c0.479-0.231,1.013-0.348,1.602-0.348c1.031,0,1.808,0.249,2.328,0.746
	c0.521,0.498,0.781,1.293,0.781,2.387v5.585L156.022,25.4L156.022,25.4z"/>
<path fill="#817B00" d="M162.749,24.485c0.229,0,0.45-0.017,0.664-0.051s0.383-0.068,0.508-0.104v0.992
	c-0.141,0.067-0.348,0.124-0.621,0.168c-0.272,0.044-0.52,0.065-0.737,0.065c-1.656,0-2.484-0.872-2.484-2.617v-5.094h-1.227V17.22
	l1.227-0.539l0.547-1.828h0.75v1.984h2.484v1.008h-2.484v5.039c0,0.516,0.122,0.912,0.367,1.188
	C161.986,24.349,162.322,24.485,162.749,24.485z"/>
<path fill="#817B00" d="M171.155,23.064c0,0.798-0.297,1.412-0.892,1.845c-0.594,0.433-1.427,0.647-2.5,0.647
	c-1.136,0-2.021-0.18-2.655-0.539v-1.203c0.411,0.208,0.853,0.373,1.323,0.492c0.473,0.12,0.927,0.181,1.363,0.181
	c0.677,0,1.198-0.108,1.562-0.324c0.363-0.216,0.547-0.545,0.547-0.988c0-0.333-0.146-0.618-0.435-0.855
	c-0.289-0.236-0.853-0.517-1.69-0.839c-0.797-0.297-1.363-0.556-1.699-0.777c-0.336-0.221-0.586-0.473-0.75-0.754
	c-0.164-0.281-0.246-0.617-0.246-1.008c0-0.698,0.284-1.249,0.852-1.652c0.567-0.403,1.348-0.605,2.337-0.605
	c0.922,0,1.822,0.188,2.702,0.562l-0.461,1.055c-0.858-0.354-1.638-0.531-2.336-0.531c-0.613,0-1.078,0.097-1.391,0.289
	c-0.312,0.193-0.469,0.458-0.469,0.797c0,0.229,0.059,0.425,0.176,0.586c0.117,0.162,0.306,0.315,0.566,0.461s0.761,0.357,1.5,0.633
	c1.016,0.37,1.701,0.742,2.059,1.117S171.155,22.497,171.155,23.064z"/>
</svg>
