<?xml version="1.0" encoding="utf-8"?>
<!-- Generator: Adobe Illustrator 15.1.0, SVG Export Plug-In . SVG Version: 6.00 Build 0)  -->
<!DOCTYPE svg PUBLIC "-//W3C//DTD SVG 1.1//EN" "http://www.w3.org/Graphics/SVG/1.1/DTD/svg11.dtd">
<svg version="1.1" id="Layer_4" xmlns="http://www.w3.org/2000/svg" xmlns:xlink="http://www.w3.org/1999/xlink" x="0px" y="0px"
	 width="272px" height="41px" viewBox="0 0 272 41" enable-background="new 0 0 272 41" xml:space="preserve">
<rect fill="#F8E64D" width="271.413" height="40.5"/>
<rect fill="none" stroke="#F9EC00" stroke-width="0.45" width="271.413" height="40.5"/>
<path fill="#817B00" d="M24.164,21.801c0,1.005-0.364,1.789-1.095,2.353c-0.729,0.562-1.719,0.844-2.969,0.844
	c-1.354,0-2.396-0.175-3.125-0.523v-1.28c0.469,0.197,0.979,0.354,1.531,0.469s1.099,0.172,1.641,0.172c0.886,0,1.552-0.168,2-0.504
	s0.672-0.805,0.672-1.402c0-0.396-0.079-0.72-0.237-0.973c-0.159-0.253-0.426-0.485-0.797-0.699
	c-0.372-0.214-0.938-0.456-1.699-0.727c-1.062-0.381-1.821-0.831-2.277-1.353c-0.456-0.521-0.684-1.2-0.684-2.039
	c0-0.88,0.331-1.581,0.992-2.102c0.66-0.521,1.535-0.781,2.625-0.781c1.136,0,2.18,0.208,3.133,0.625l-0.414,1.156
	c-0.942-0.396-1.859-0.595-2.75-0.595c-0.703,0-1.253,0.151-1.648,0.453c-0.395,0.303-0.594,0.723-0.594,1.259
	c0,0.396,0.073,0.72,0.219,0.973c0.146,0.253,0.393,0.484,0.738,0.695s0.876,0.443,1.59,0.698c1.198,0.428,2.022,0.887,2.473,1.375
	C23.939,20.384,24.164,21.02,24.164,21.801z"/>
<path fill="#817B00" d="M29.922,24.996c-1.267,0-2.266-0.386-2.996-1.156c-0.731-0.77-1.098-1.841-1.098-3.211
	c0-1.38,0.34-2.477,1.02-3.289c0.68-0.812,1.593-1.219,2.738-1.219c1.072,0,1.922,0.353,2.547,1.059s0.938,1.637,0.938,2.793v0.82
	h-5.897c0.025,1.005,0.28,1.769,0.762,2.289c0.482,0.52,1.16,0.781,2.035,0.781c0.922,0,1.833-0.192,2.734-0.578v1.156
	c-0.458,0.197-0.893,0.34-1.302,0.426C30.994,24.953,30.5,24.996,29.922,24.996z M29.57,17.207c-0.688,0-1.234,0.224-1.645,0.672
	s-0.649,1.067-0.723,1.859h4.477c0-0.817-0.183-1.444-0.547-1.879C30.769,17.424,30.247,17.207,29.57,17.207z"/>
<path fill="#817B00" d="M38.898,24.996c-1.266,0-2.265-0.386-2.996-1.156c-0.73-0.77-1.098-1.841-1.098-3.211
	c0-1.38,0.34-2.477,1.02-3.289c0.681-0.812,1.594-1.219,2.738-1.219c1.073,0,1.922,0.353,2.547,1.059s0.938,1.637,0.938,2.793v0.82
	h-5.898c0.026,1.005,0.28,1.769,0.763,2.289c0.481,0.52,1.159,0.781,2.034,0.781c0.923,0,1.833-0.192,2.734-0.578v1.156
	c-0.458,0.197-0.892,0.34-1.301,0.426S39.477,24.996,38.898,24.996z M38.547,17.207c-0.688,0-1.235,0.224-1.646,0.672
	s-0.648,1.067-0.723,1.859h4.477c0-0.817-0.183-1.444-0.547-1.879C39.744,17.424,39.224,17.207,38.547,17.207z"/>
<path fill="#817B00" d="M55.805,20.551c0,1.396-0.352,2.485-1.055,3.271c-0.703,0.784-1.676,1.176-2.914,1.176
	c-0.767,0-1.445-0.181-2.039-0.539c-0.594-0.359-1.053-0.875-1.375-1.547c-0.323-0.672-0.484-1.458-0.484-2.359
	c0-1.396,0.35-2.482,1.047-3.262c0.698-0.779,1.667-1.168,2.906-1.168c1.198,0,2.149,0.397,2.855,1.194
	C55.451,18.114,55.805,19.191,55.805,20.551z M49.281,20.551c0,1.094,0.22,1.927,0.656,2.5c0.438,0.573,1.081,0.859,1.93,0.859
	c0.85,0,1.493-0.285,1.935-0.855c0.441-0.569,0.66-1.404,0.66-2.504c0-1.089-0.22-1.915-0.66-2.479
	c-0.44-0.565-1.09-0.849-1.949-0.849c-0.849,0-1.489,0.278-1.922,0.836C49.498,18.617,49.281,19.446,49.281,20.551z"/>
<path fill="#817B00" d="M63.938,24.84v-5.539c0-0.698-0.159-1.219-0.477-1.562c-0.318-0.344-0.815-0.517-1.492-0.517
	c-0.896,0-1.552,0.242-1.969,0.728c-0.417,0.484-0.625,1.284-0.625,2.397v4.492h-1.297v-8.562h1.055l0.211,1.172h0.062
	c0.267-0.422,0.639-0.749,1.117-0.98c0.479-0.23,1.014-0.348,1.603-0.348c1.03,0,1.808,0.249,2.328,0.746
	c0.52,0.497,0.78,1.293,0.78,2.387v5.586L63.938,24.84L63.938,24.84z"/>
<path fill="#817B00" d="M69.195,24.84h-1.297V12.684h1.297V24.84z"/>
<path fill="#817B00" d="M70.586,16.277h1.391l1.875,4.883c0.411,1.113,0.667,1.919,0.766,2.414h0.062
	c0.067-0.267,0.21-0.721,0.426-1.363s0.923-2.621,2.121-5.934h1.391l-3.68,9.75c-0.364,0.964-0.79,1.646-1.277,2.051
	c-0.486,0.403-1.085,0.604-1.793,0.604c-0.396,0-0.785-0.044-1.172-0.133v-1.039c0.286,0.062,0.606,0.094,0.961,0.094
	c0.892,0,1.526-0.5,1.906-1.5l0.478-1.219L70.586,16.277z"/>
<path fill="#817B00" d="M88.07,16.121c0.381,0,0.723,0.031,1.023,0.094l-0.18,1.203c-0.354-0.078-0.667-0.117-0.938-0.117
	c-0.692,0-1.285,0.281-1.776,0.844c-0.492,0.563-0.738,1.264-0.738,2.103v4.594h-1.297v-8.562h1.069l0.148,1.586h0.062
	c0.317-0.559,0.7-0.987,1.148-1.289C87.04,16.273,87.535,16.121,88.07,16.121z"/>
<path fill="#817B00" d="M94.312,24.996c-1.266,0-2.265-0.386-2.996-1.156c-0.73-0.77-1.098-1.841-1.098-3.211
	c0-1.38,0.34-2.477,1.02-3.289c0.681-0.812,1.594-1.219,2.738-1.219c1.073,0,1.922,0.353,2.547,1.059s0.938,1.637,0.938,2.793v0.82
	h-5.898c0.026,1.005,0.28,1.769,0.763,2.289c0.481,0.52,1.159,0.781,2.034,0.781c0.922,0,1.833-0.192,2.734-0.578v1.156
	c-0.458,0.197-0.892,0.34-1.301,0.426S94.891,24.996,94.312,24.996z M93.961,17.207c-0.688,0-1.235,0.224-1.646,0.672
	s-0.648,1.067-0.723,1.859h4.477c0-0.817-0.183-1.444-0.547-1.879C95.158,17.424,94.638,17.207,93.961,17.207z"/>
<path fill="#817B00" d="M101.547,24.84l-3.25-8.562h1.391l1.844,5.077c0.417,1.188,0.661,1.958,0.734,2.312h0.062
	c0.058-0.276,0.237-0.848,0.543-1.715c0.305-0.867,0.987-2.759,2.051-5.676h1.391l-3.25,8.562L101.547,24.84L101.547,24.84z"/>
<path fill="#817B00" d="M107.578,13.957c0-0.297,0.072-0.516,0.219-0.652c0.146-0.137,0.328-0.207,0.547-0.207
	c0.208,0,0.388,0.07,0.539,0.211c0.15,0.142,0.227,0.356,0.227,0.648s-0.075,0.509-0.227,0.652
	c-0.152,0.143-0.331,0.215-0.539,0.215c-0.219,0-0.401-0.071-0.547-0.215C107.65,14.465,107.578,14.249,107.578,13.957z
	 M108.984,24.84h-1.297v-8.562h1.297V24.84z"/>
<path fill="#817B00" d="M115.352,24.996c-1.266,0-2.265-0.386-2.996-1.156c-0.73-0.77-1.098-1.841-1.098-3.211
	c0-1.38,0.34-2.477,1.02-3.289c0.681-0.812,1.594-1.219,2.738-1.219c1.073,0,1.922,0.353,2.547,1.059s0.938,1.637,0.938,2.793v0.82
	h-5.898c0.026,1.005,0.28,1.769,0.762,2.289c0.482,0.52,1.16,0.781,2.035,0.781c0.922,0,1.833-0.192,2.734-0.578v1.156
	c-0.458,0.197-0.893,0.34-1.301,0.426C116.424,24.953,115.93,24.996,115.352,24.996z M115,17.207c-0.688,0-1.235,0.224-1.646,0.672
	s-0.648,1.067-0.723,1.859h4.477c0-0.817-0.183-1.444-0.547-1.879C116.197,17.424,115.677,17.207,115,17.207z"/>
<path fill="#817B00" d="M127.703,24.84l-1.57-5.023c-0.1-0.308-0.284-1.005-0.555-2.094h-0.062
	c-0.208,0.911-0.391,1.614-0.547,2.109l-1.617,5.008h-1.5l-2.336-8.562h1.359c0.552,2.15,0.973,3.788,1.262,4.913
	s0.454,1.884,0.496,2.273h0.062c0.059-0.297,0.149-0.681,0.277-1.152c0.128-0.471,0.238-0.845,0.332-1.121l1.57-4.913h1.405
	l1.531,4.913c0.292,0.896,0.489,1.648,0.594,2.259h0.062c0.021-0.188,0.077-0.478,0.168-0.867s0.634-2.492,1.629-6.305h1.344
	l-2.367,8.562H127.703z"/>
<path fill="#817B00" d="M136.773,24.996c-1.266,0-2.265-0.386-2.996-1.156c-0.73-0.77-1.098-1.841-1.098-3.211
	c0-1.38,0.34-2.477,1.02-3.289c0.681-0.812,1.594-1.219,2.738-1.219c1.073,0,1.922,0.353,2.547,1.059s0.938,1.637,0.938,2.793v0.82
	h-5.898c0.026,1.005,0.28,1.769,0.763,2.289c0.481,0.52,1.159,0.781,2.034,0.781c0.923,0,1.833-0.192,2.734-0.578v1.156
	c-0.458,0.197-0.892,0.34-1.301,0.426S137.352,24.996,136.773,24.996z M136.422,17.207c-0.688,0-1.235,0.224-1.646,0.672
	s-0.648,1.067-0.723,1.859h4.477c0-0.817-0.183-1.444-0.547-1.879C137.619,17.424,137.099,17.207,136.422,17.207z"/>
<path fill="#817B00" d="M147.961,23.691h-0.07c-0.599,0.869-1.495,1.305-2.688,1.305c-1.12,0-1.991-0.383-2.613-1.148
	c-0.622-0.765-0.935-1.854-0.935-3.266s0.312-2.508,0.938-3.289s1.495-1.172,2.609-1.172c1.16,0,2.052,0.422,2.672,1.266h0.102
	l-0.055-0.617l-0.031-0.602v-3.484h1.297V24.84h-1.055L147.961,23.691z M145.367,23.91c0.887,0,1.527-0.241,1.927-0.724
	c0.398-0.481,0.598-1.259,0.598-2.332v-0.272c0-1.214-0.202-2.079-0.604-2.598c-0.403-0.52-1.049-0.777-1.935-0.777
	c-0.761,0-1.343,0.296-1.746,0.887c-0.402,0.591-0.604,1.426-0.604,2.504c0,1.094,0.2,1.919,0.602,2.478
	C144.006,23.633,144.591,23.91,145.367,23.91z"/>
<path fill="#817B00" d="M159.516,24.996c-1.239,0-2.199-0.382-2.879-1.146c-0.68-0.763-1.021-1.843-1.021-3.237
	c0-1.434,0.346-2.539,1.035-3.32c0.69-0.781,1.673-1.172,2.949-1.172c0.411,0,0.823,0.044,1.234,0.133s0.733,0.192,0.969,0.312
	l-0.398,1.102c-0.286-0.114-0.599-0.21-0.938-0.285s-0.638-0.113-0.898-0.113c-1.739,0-2.608,1.109-2.608,3.328
	c0,1.053,0.212,1.859,0.637,2.422c0.425,0.563,1.054,0.845,1.887,0.845c0.714,0,1.445-0.153,2.195-0.461v1.147
	C161.106,24.848,160.386,24.996,159.516,24.996z"/>
<path fill="#817B00" d="M171.102,20.551c0,1.396-0.352,2.485-1.055,3.271c-0.703,0.784-1.675,1.176-2.914,1.176
	c-0.766,0-1.445-0.181-2.039-0.539c-0.594-0.359-1.052-0.875-1.375-1.547s-0.484-1.458-0.484-2.359c0-1.396,0.35-2.482,1.047-3.262
	c0.698-0.779,1.667-1.168,2.906-1.168c1.198,0,2.149,0.397,2.855,1.194C170.749,18.114,171.102,19.191,171.102,20.551z
	 M164.578,20.551c0,1.094,0.219,1.927,0.655,2.5c0.438,0.573,1.081,0.859,1.931,0.859c0.849,0,1.492-0.285,1.934-0.855
	c0.441-0.569,0.66-1.404,0.66-2.504c0-1.089-0.22-1.915-0.66-2.479c-0.44-0.565-1.09-0.849-1.949-0.849
	c-0.849,0-1.488,0.278-1.922,0.836C164.794,18.617,164.578,19.446,164.578,20.551z"/>
<path fill="#817B00" d="M184.289,24.84v-5.57c0-0.683-0.146-1.193-0.438-1.534c-0.292-0.342-0.745-0.513-1.359-0.513
	c-0.808,0-1.402,0.231-1.788,0.695c-0.387,0.464-0.578,1.177-0.578,2.141v4.781h-1.297v-5.57c0-0.683-0.146-1.193-0.438-1.534
	c-0.292-0.342-0.747-0.513-1.367-0.513c-0.812,0-1.407,0.243-1.785,0.73c-0.378,0.486-0.565,1.285-0.565,2.395v4.492h-1.297v-8.562
	h1.055l0.211,1.172h0.062c0.244-0.417,0.59-0.742,1.034-0.978c0.445-0.234,0.944-0.352,1.496-0.352c1.339,0,2.214,0.483,2.625,1.453
	h0.062c0.255-0.448,0.625-0.803,1.108-1.062c0.484-0.26,1.036-0.391,1.656-0.391c0.969,0,1.694,0.249,2.176,0.746
	c0.482,0.497,0.724,1.293,0.724,2.387v5.586H184.289z"/>
<path fill="#817B00" d="M199.172,24.84v-5.57c0-0.683-0.146-1.193-0.438-1.534c-0.292-0.342-0.745-0.513-1.358-0.513
	c-0.809,0-1.403,0.231-1.789,0.695c-0.387,0.464-0.578,1.177-0.578,2.141v4.781h-1.297v-5.57c0-0.683-0.146-1.193-0.438-1.534
	c-0.292-0.342-0.747-0.513-1.367-0.513c-0.812,0-1.406,0.243-1.784,0.73c-0.379,0.486-0.566,1.285-0.566,2.395v4.492h-1.297v-8.562
	h1.055l0.211,1.172h0.062c0.245-0.417,0.59-0.742,1.035-0.978c0.444-0.234,0.943-0.352,1.495-0.352c1.34,0,2.215,0.483,2.625,1.453
	h0.062c0.255-0.448,0.625-0.803,1.109-1.062c0.483-0.26,1.035-0.391,1.655-0.391c0.97,0,1.694,0.249,2.177,0.746
	c0.481,0.497,0.723,1.293,0.723,2.387v5.586H199.172z"/>
<path fill="#817B00" d="M203.031,13.957c0-0.297,0.073-0.516,0.22-0.652c0.146-0.137,0.328-0.207,0.547-0.207
	c0.208,0,0.388,0.07,0.539,0.211c0.15,0.142,0.227,0.356,0.227,0.648s-0.075,0.509-0.227,0.652
	c-0.152,0.143-0.331,0.215-0.539,0.215c-0.219,0-0.401-0.071-0.547-0.215C203.104,14.465,203.031,14.249,203.031,13.957z
	 M204.438,24.84h-1.297v-8.562h1.297V24.84z"/>
<path fill="#817B00" d="M209.953,23.926c0.229,0,0.449-0.017,0.663-0.051c0.215-0.034,0.384-0.069,0.509-0.105v0.992
	c-0.142,0.067-0.349,0.124-0.621,0.168c-0.273,0.044-0.521,0.066-0.738,0.066c-1.656,0-2.484-0.872-2.484-2.617v-5.094h-1.227V16.66
	l1.227-0.539l0.548-1.828h0.75v1.984h2.483v1.008h-2.483v5.039c0,0.516,0.122,0.911,0.366,1.188
	C209.19,23.789,209.526,23.926,209.953,23.926z"/>
<path fill="#817B00" d="M223.75,24.84v-5.57c0-0.683-0.146-1.193-0.438-1.534c-0.292-0.342-0.745-0.513-1.358-0.513
	c-0.809,0-1.403,0.231-1.789,0.695c-0.387,0.464-0.578,1.177-0.578,2.141v4.781h-1.297v-5.57c0-0.683-0.146-1.193-0.438-1.534
	c-0.292-0.342-0.747-0.513-1.367-0.513c-0.812,0-1.407,0.243-1.785,0.73c-0.378,0.486-0.565,1.285-0.565,2.395v4.492h-1.297v-8.562
	h1.055l0.211,1.172h0.062c0.244-0.417,0.59-0.742,1.034-0.978c0.445-0.234,0.944-0.352,1.496-0.352c1.339,0,2.214,0.483,2.625,1.453
	h0.062c0.255-0.448,0.625-0.803,1.108-1.062c0.484-0.26,1.036-0.391,1.656-0.391c0.969,0,1.694,0.249,2.176,0.746
	c0.482,0.497,0.724,1.293,0.724,2.387v5.586H223.75z"/>
<path fill="#817B00" d="M231.336,24.996c-1.267,0-2.266-0.386-2.996-1.156c-0.731-0.77-1.099-1.841-1.099-3.211
	c0-1.38,0.341-2.477,1.021-3.289c0.68-0.812,1.593-1.219,2.738-1.219c1.072,0,1.922,0.353,2.547,1.059s0.938,1.637,0.938,2.793v0.82
	h-5.897c0.025,1.005,0.279,1.769,0.762,2.289c0.482,0.52,1.16,0.781,2.035,0.781c0.922,0,1.833-0.192,2.733-0.578v1.156
	c-0.458,0.197-0.892,0.34-1.301,0.426S231.914,24.996,231.336,24.996z M230.984,17.207c-0.688,0-1.234,0.224-1.645,0.672
	s-0.649,1.067-0.724,1.859h4.478c0-0.817-0.184-1.444-0.547-1.879C232.183,17.424,231.66,17.207,230.984,17.207z"/>
<path fill="#817B00" d="M242.555,24.84v-5.539c0-0.698-0.159-1.219-0.477-1.562c-0.318-0.344-0.815-0.517-1.492-0.517
	c-0.896,0-1.553,0.242-1.97,0.728c-0.417,0.484-0.625,1.284-0.625,2.397v4.492h-1.297v-8.562h1.056l0.211,1.172h0.062
	c0.267-0.422,0.638-0.749,1.117-0.98c0.479-0.23,1.013-0.348,1.602-0.348c1.031,0,1.809,0.249,2.328,0.746
	c0.521,0.497,0.781,1.293,0.781,2.387v5.586L242.555,24.84L242.555,24.84z"/>
<path fill="#817B00" d="M249.281,23.926c0.229,0,0.45-0.017,0.664-0.051c0.215-0.034,0.384-0.069,0.509-0.105v0.992
	c-0.142,0.067-0.349,0.124-0.621,0.168c-0.273,0.044-0.521,0.066-0.738,0.066c-1.656,0-2.484-0.872-2.484-2.617v-5.094h-1.227V16.66
	l1.227-0.539l0.548-1.828h0.75v1.984h2.483v1.008h-2.483v5.039c0,0.516,0.121,0.911,0.366,1.188
	C248.52,23.789,248.854,23.926,249.281,23.926z"/>
<path fill="#817B00" d="M257.688,22.504c0,0.797-0.297,1.411-0.891,1.844c-0.594,0.434-1.427,0.648-2.5,0.648
	c-1.136,0-2.021-0.18-2.656-0.539v-1.203c0.411,0.208,0.854,0.372,1.324,0.492s0.926,0.18,1.363,0.18
	c0.677,0,1.197-0.107,1.562-0.324c0.364-0.216,0.547-0.546,0.547-0.987c0-0.333-0.145-0.618-0.434-0.855s-0.854-0.517-1.691-0.84
	c-0.797-0.297-1.363-0.556-1.699-0.777c-0.336-0.221-0.586-0.473-0.75-0.754s-0.245-0.617-0.245-1.008
	c0-0.698,0.283-1.249,0.852-1.652c0.568-0.402,1.347-0.604,2.336-0.604c0.922,0,1.823,0.188,2.703,0.562l-0.461,1.056
	c-0.859-0.354-1.639-0.531-2.336-0.531c-0.614,0-1.078,0.097-1.392,0.289c-0.312,0.191-0.469,0.458-0.469,0.797
	c0,0.229,0.06,0.425,0.176,0.586c0.117,0.161,0.307,0.315,0.566,0.461c0.26,0.146,0.761,0.356,1.5,0.633
	c1.016,0.37,1.702,0.742,2.059,1.117C257.509,21.467,257.688,21.937,257.688,22.504z"/>
</svg>
