<?xml version="1.0" encoding="utf-8"?>
<!-- Generator: Adobe Illustrator 15.1.0, SVG Export Plug-In . SVG Version: 6.00 Build 0)  -->
<!DOCTYPE svg PUBLIC "-//W3C//DTD SVG 1.1//EN" "http://www.w3.org/Graphics/SVG/1.1/DTD/svg11.dtd">
<svg version="1.1" xmlns="http://www.w3.org/2000/svg" xmlns:xlink="http://www.w3.org/1999/xlink" x="0px" y="0px" width="271px"
	 height="41px" viewBox="0 0 271 41" enable-background="new 0 0 271 41" xml:space="preserve">
<g id="Layer_3">
</g>
<g id="Layer_1">
	<g>
		<rect fill="#F8E64D" width="271.414" height="40.5"/>
		<rect fill="none" stroke="#F9EC00" stroke-width="0.45" width="271.414" height="40.5"/>
	</g>
	<g>
		<path fill="#817B00" d="M22.741,19.991h3.883v5.555c-0.604,0.192-1.219,0.339-1.844,0.438s-1.349,0.148-2.172,0.148
			c-1.729,0-3.075-0.515-4.039-1.543s-1.445-2.47-1.445-4.324c0-1.188,0.238-2.228,0.715-3.121s1.163-1.575,2.059-2.047
			s1.945-0.707,3.148-0.707c1.219,0,2.354,0.224,3.406,0.672l-0.516,1.172c-1.031-0.438-2.023-0.656-2.977-0.656
			c-1.391,0-2.477,0.414-3.258,1.242s-1.172,1.977-1.172,3.445c0,1.542,0.376,2.711,1.129,3.508s1.858,1.195,3.316,1.195
			c0.792,0,1.565-0.091,2.32-0.273v-3.516h-2.555V19.991z"/>
		<path fill="#817B00" d="M36.562,21.687c0,1.396-0.352,2.485-1.055,3.27s-1.675,1.176-2.914,1.176c-0.766,0-1.445-0.18-2.039-0.539
			s-1.052-0.875-1.375-1.547s-0.484-1.458-0.484-2.359c0-1.396,0.349-2.483,1.047-3.262s1.667-1.168,2.906-1.168
			c1.198,0,2.149,0.398,2.855,1.195S36.562,20.327,36.562,21.687z M30.038,21.687c0,1.094,0.219,1.927,0.656,2.5
			s1.081,0.859,1.93,0.859s1.493-0.285,1.934-0.855s0.66-1.405,0.66-2.504c0-1.089-0.22-1.915-0.66-2.48s-1.09-0.848-1.949-0.848
			c-0.849,0-1.489,0.278-1.922,0.836S30.038,20.582,30.038,21.687z"/>
		<path fill="#817B00" d="M45.757,25.062c0.229,0,0.45-0.017,0.664-0.051s0.383-0.069,0.508-0.105v0.992
			c-0.141,0.067-0.348,0.124-0.621,0.168s-0.52,0.066-0.738,0.066c-1.656,0-2.484-0.872-2.484-2.617v-5.094h-1.227v-0.625
			l1.227-0.539l0.547-1.828h0.75v1.984h2.484v1.008h-2.484v5.039c0,0.516,0.122,0.911,0.367,1.188S45.33,25.062,45.757,25.062z"/>
		<path fill="#817B00" d="M56.03,21.687c0,1.396-0.352,2.485-1.055,3.27s-1.675,1.176-2.914,1.176c-0.766,0-1.445-0.18-2.039-0.539
			s-1.052-0.875-1.375-1.547s-0.484-1.458-0.484-2.359c0-1.396,0.349-2.483,1.047-3.262s1.667-1.168,2.906-1.168
			c1.198,0,2.149,0.398,2.855,1.195S56.03,20.327,56.03,21.687z M49.507,21.687c0,1.094,0.219,1.927,0.656,2.5
			s1.081,0.859,1.93,0.859s1.493-0.285,1.934-0.855s0.66-1.405,0.66-2.504c0-1.089-0.22-1.915-0.66-2.48s-1.09-0.848-1.949-0.848
			c-0.849,0-1.489,0.278-1.922,0.836S49.507,20.582,49.507,21.687z"/>
		<path fill="#817B00" d="M65.226,25.062c0.229,0,0.45-0.017,0.664-0.051s0.383-0.069,0.508-0.105v0.992
			c-0.141,0.067-0.348,0.124-0.621,0.168s-0.52,0.066-0.738,0.066c-1.656,0-2.484-0.872-2.484-2.617v-5.094h-1.227v-0.625
			l1.227-0.539l0.547-1.828h0.75v1.984h2.484v1.008h-2.484v5.039c0,0.516,0.122,0.911,0.367,1.188S64.799,25.062,65.226,25.062z"/>
		<path fill="#817B00" d="M73.968,25.976v-5.539c0-0.698-0.159-1.219-0.477-1.562s-0.815-0.516-1.492-0.516
			c-0.901,0-1.559,0.245-1.973,0.734s-0.621,1.292-0.621,2.406v4.477h-1.297V13.819h1.297v3.68c0,0.442-0.021,0.81-0.062,1.102
			h0.078c0.255-0.411,0.618-0.735,1.09-0.973s1.009-0.355,1.613-0.355c1.047,0,1.832,0.249,2.355,0.746s0.785,1.288,0.785,2.371
			v5.586H73.968z"/>
		<path fill="#817B00" d="M81.546,26.132c-1.266,0-2.265-0.386-2.996-1.156s-1.098-1.841-1.098-3.211c0-1.38,0.34-2.477,1.02-3.289
			s1.593-1.219,2.738-1.219c1.073,0,1.922,0.353,2.547,1.059s0.938,1.637,0.938,2.793v0.82h-5.898
			c0.026,1.005,0.28,1.769,0.762,2.289s1.16,0.781,2.035,0.781c0.922,0,1.833-0.192,2.734-0.578v1.156
			c-0.458,0.198-0.892,0.34-1.301,0.426S82.124,26.132,81.546,26.132z M81.194,18.343c-0.688,0-1.235,0.224-1.645,0.672
			s-0.649,1.067-0.723,1.859h4.477c0-0.817-0.183-1.444-0.547-1.879S81.871,18.343,81.194,18.343z"/>
		<path fill="#817B00" d="M96.921,25.976v-5.539c0-0.698-0.159-1.219-0.477-1.562s-0.815-0.516-1.492-0.516
			c-0.901,0-1.559,0.245-1.973,0.734s-0.621,1.292-0.621,2.406v4.477h-1.297V13.819h1.297v3.68c0,0.442-0.021,0.81-0.062,1.102
			h0.078c0.255-0.411,0.618-0.735,1.09-0.973s1.009-0.355,1.613-0.355c1.047,0,1.832,0.249,2.355,0.746s0.785,1.288,0.785,2.371
			v5.586H96.921z"/>
		<path fill="#817B00" d="M104.499,26.132c-1.266,0-2.265-0.386-2.996-1.156s-1.098-1.841-1.098-3.211c0-1.38,0.34-2.477,1.02-3.289
			s1.593-1.219,2.738-1.219c1.073,0,1.922,0.353,2.547,1.059s0.938,1.637,0.938,2.793v0.82h-5.898
			c0.026,1.005,0.28,1.769,0.762,2.289s1.16,0.781,2.035,0.781c0.922,0,1.833-0.192,2.734-0.578v1.156
			c-0.458,0.198-0.892,0.34-1.301,0.426S105.077,26.132,104.499,26.132z M104.147,18.343c-0.688,0-1.235,0.224-1.645,0.672
			s-0.649,1.067-0.723,1.859h4.477c0-0.817-0.183-1.444-0.547-1.879S104.824,18.343,104.147,18.343z"/>
		<path fill="#817B00" d="M111.155,25.976h-1.297V13.819h1.297V25.976z"/>
		<path fill="#817B00" d="M117.89,26.132c-0.558,0-1.066-0.103-1.527-0.309s-0.848-0.522-1.16-0.949h-0.094
			c0.062,0.5,0.094,0.974,0.094,1.422v3.523h-1.297V17.413h1.055l0.18,1.172h0.062c0.333-0.469,0.722-0.808,1.164-1.016
			s0.95-0.312,1.523-0.312c1.136,0,2.012,0.388,2.629,1.164s0.926,1.864,0.926,3.266c0,1.406-0.313,2.499-0.941,3.277
			S119.004,26.132,117.89,26.132z M117.702,18.358c-0.875,0-1.508,0.242-1.898,0.727s-0.591,1.255-0.602,2.312v0.289
			c0,1.203,0.2,2.063,0.602,2.582s1.044,0.777,1.93,0.777c0.739,0,1.319-0.3,1.738-0.898s0.629-1.425,0.629-2.477
			c0-1.067-0.21-1.887-0.629-2.457S118.463,18.358,117.702,18.358z"/>
		<path fill="#817B00" d="M133.39,23.64c0,0.797-0.297,1.411-0.891,1.844s-1.427,0.648-2.5,0.648c-1.136,0-2.021-0.18-2.656-0.539
			V24.39c0.411,0.208,0.853,0.372,1.324,0.492s0.926,0.18,1.363,0.18c0.677,0,1.198-0.108,1.562-0.324s0.547-0.546,0.547-0.988
			c0-0.333-0.145-0.618-0.434-0.855s-0.853-0.517-1.691-0.84c-0.797-0.297-1.363-0.556-1.699-0.777s-0.586-0.473-0.75-0.754
			s-0.246-0.617-0.246-1.008c0-0.698,0.284-1.249,0.852-1.652s1.347-0.605,2.336-0.605c0.922,0,1.823,0.188,2.703,0.562
			l-0.461,1.055c-0.859-0.354-1.638-0.531-2.336-0.531c-0.614,0-1.078,0.097-1.391,0.289s-0.469,0.458-0.469,0.797
			c0,0.229,0.059,0.425,0.176,0.586s0.306,0.315,0.566,0.461s0.761,0.356,1.5,0.633c1.016,0.37,1.702,0.742,2.059,1.117
			S133.39,23.072,133.39,23.64z"/>
		<path fill="#817B00" d="M139.116,26.132c-1.266,0-2.265-0.386-2.996-1.156s-1.098-1.841-1.098-3.211c0-1.38,0.34-2.477,1.02-3.289
			s1.593-1.219,2.738-1.219c1.073,0,1.922,0.353,2.547,1.059s0.938,1.637,0.938,2.793v0.82h-5.898
			c0.026,1.005,0.28,1.769,0.762,2.289s1.16,0.781,2.035,0.781c0.922,0,1.833-0.192,2.734-0.578v1.156
			c-0.458,0.198-0.892,0.34-1.301,0.426S139.694,26.132,139.116,26.132z M138.765,18.343c-0.688,0-1.235,0.224-1.645,0.672
			s-0.649,1.067-0.723,1.859h4.477c0-0.817-0.183-1.444-0.547-1.879S139.441,18.343,138.765,18.343z"/>
		<path fill="#817B00" d="M147.897,26.132c-1.239,0-2.199-0.382-2.879-1.145s-1.02-1.843-1.02-3.238c0-1.433,0.345-2.539,1.035-3.32
			s1.673-1.172,2.949-1.172c0.411,0,0.823,0.044,1.234,0.133s0.734,0.192,0.969,0.312l-0.398,1.102
			c-0.286-0.114-0.599-0.21-0.938-0.285s-0.638-0.113-0.898-0.113c-1.739,0-2.609,1.109-2.609,3.328
			c0,1.052,0.212,1.859,0.637,2.422s1.054,0.844,1.887,0.844c0.714,0,1.445-0.153,2.195-0.461v1.148
			C149.488,25.983,148.768,26.132,147.897,26.132z"/>
		<path fill="#817B00" d="M154.858,25.062c0.229,0,0.45-0.017,0.664-0.051s0.383-0.069,0.508-0.105v0.992
			c-0.141,0.067-0.348,0.124-0.621,0.168s-0.52,0.066-0.738,0.066c-1.656,0-2.484-0.872-2.484-2.617v-5.094h-1.227v-0.625
			l1.227-0.539l0.547-1.828h0.75v1.984h2.484v1.008h-2.484v5.039c0,0.516,0.122,0.911,0.367,1.188S154.432,25.062,154.858,25.062z"
			/>
		<path fill="#817B00" d="M157.632,15.093c0-0.297,0.073-0.515,0.219-0.652s0.328-0.207,0.547-0.207c0.208,0,0.388,0.07,0.539,0.211
			s0.227,0.356,0.227,0.648s-0.075,0.509-0.227,0.652s-0.331,0.215-0.539,0.215c-0.219,0-0.401-0.071-0.547-0.215
			S157.632,15.385,157.632,15.093z M159.038,25.976h-1.297v-8.562h1.297V25.976z"/>
		<path fill="#817B00" d="M169.179,21.687c0,1.396-0.352,2.485-1.055,3.27s-1.675,1.176-2.914,1.176
			c-0.766,0-1.445-0.18-2.039-0.539s-1.052-0.875-1.375-1.547s-0.484-1.458-0.484-2.359c0-1.396,0.349-2.483,1.047-3.262
			s1.667-1.168,2.906-1.168c1.198,0,2.149,0.398,2.855,1.195S169.179,20.327,169.179,21.687z M162.655,21.687
			c0,1.094,0.219,1.927,0.656,2.5s1.081,0.859,1.93,0.859s1.493-0.285,1.934-0.855s0.66-1.405,0.66-2.504
			c0-1.089-0.22-1.915-0.66-2.48s-1.09-0.848-1.949-0.848c-0.849,0-1.489,0.278-1.922,0.836S162.655,20.582,162.655,21.687z"/>
		<path fill="#817B00" d="M177.312,25.976v-5.539c0-0.698-0.159-1.219-0.477-1.562s-0.815-0.516-1.492-0.516
			c-0.896,0-1.552,0.242-1.969,0.727s-0.625,1.284-0.625,2.398v4.492h-1.297v-8.562h1.055l0.211,1.172h0.062
			c0.266-0.422,0.638-0.749,1.117-0.98s1.013-0.348,1.602-0.348c1.031,0,1.808,0.249,2.328,0.746s0.781,1.293,0.781,2.387v5.586
			H177.312z"/>
	</g>
</g>
</svg>
